<svg width="148" height="148" viewBox="0 0 148 148" fill="none" xmlns="http://www.w3.org/2000/svg">
<path fill-rule="evenodd" clip-rule="evenodd" d="M5.08301 112.335C3.4085 112.335 2 113.714 2 115.335V142.667C2 144.42 3.45175 146 5 146H142.666C143.448 146 144.289 145.613 144.951 144.951C145.613 144.29 146 143.449 146 142.667V115.335C146 113.739 144.534 112.335 142.833 112.335C142.281 112.335 141.833 111.887 141.833 111.335C141.833 110.783 142.281 110.335 142.833 110.335C145.532 110.335 148 112.531 148 115.335V142.667C148 144.085 147.32 145.411 146.365 146.366C145.411 147.32 144.085 148 142.666 148H5C2.14826 148 4.79472e-07 145.314 4.79472e-07 142.667V115.335C4.79472e-07 112.556 2.35751 110.335 5.08301 110.335C5.63529 110.335 6.08301 110.783 6.08301 111.335C6.08301 111.887 5.63529 112.335 5.08301 112.335Z" fill="url(#paint0_linear_2_22)"/>
<path fill-rule="evenodd" clip-rule="evenodd" d="M5.08301 77.003C3.4085 77.003 2 78.3817 2 80.003V107.335C2 108.871 3.23337 110 5 110H142.666C144.543 110 146 108.779 146 107.335V80.003C146 78.4073 144.534 77.003 142.833 77.003C142.281 77.003 141.833 76.5553 141.833 76.003C141.833 75.4507 142.281 75.003 142.833 75.003C145.532 75.003 148 77.1987 148 80.003V107.335C148 110.291 145.191 112 142.666 112H5C2.36663 112 4.79472e-07 110.199 4.79472e-07 107.335V80.003C4.79472e-07 77.2243 2.35751 75.003 5.08301 75.003C5.63529 75.003 6.08301 75.4507 6.08301 76.003C6.08301 76.5553 5.63529 77.003 5.08301 77.003Z" fill="url(#paint1_linear_2_22)"/>
<path fill-rule="evenodd" clip-rule="evenodd" d="M1 40C1.55229 40 2 40.4477 2 41V72.003C2 73.6497 3.35131 75 5 75H142.666C144.421 75 146 73.5502 146 72.003V41C146 40.4477 146.448 40 147 40C147.552 40 148 40.4477 148 41V72.003C148 74.8558 145.313 77 142.666 77H5C2.24869 77 4.79472e-07 74.7562 4.79472e-07 72.003V41C4.79472e-07 40.4477 0.447716 40 1 40Z" fill="url(#paint2_linear_2_22)"/>
<path fill-rule="evenodd" clip-rule="evenodd" d="M21.163 0.534334C21.3359 0.205738 21.6767 0 22.048 0H125.952C126.323 0 126.664 0.205738 126.837 0.534334L147.885 40.5343C148.048 40.8443 148.037 41.217 147.856 41.5169C147.675 41.8167 147.35 42 147 42H1C0.64973 42 0.324992 41.8167 0.143944 41.5169C-0.0371045 41.217 -0.048069 40.8443 0.11504 40.5343L21.163 0.534334ZM22.6518 2L2.65619 40H145.344L125.348 2H22.6518Z" fill="url(#paint3_linear_2_22)"/>
<path fill-rule="evenodd" clip-rule="evenodd" d="M18 124C18.5523 124 19 124.448 19 125V133C19 133.552 18.5523 134 18 134C17.4477 134 17 133.552 17 133V125C17 124.448 17.4477 124 18 124Z" fill="url(#paint4_linear_2_22)"/>
<path fill-rule="evenodd" clip-rule="evenodd" d="M33 124C33.5523 124 34 124.448 34 125V133C34 133.552 33.5523 134 33 134C32.4477 134 32 133.552 32 133V125C32 124.448 32.4477 124 33 124Z" fill="url(#paint5_linear_2_22)"/>
<path fill-rule="evenodd" clip-rule="evenodd" d="M48 124C48.5523 124 49 124.448 49 125V133C49 133.552 48.5523 134 48 134C47.4477 134 47 133.552 47 133V125C47 124.448 47.4477 124 48 124Z" fill="url(#paint6_linear_2_22)"/>
<path fill-rule="evenodd" clip-rule="evenodd" d="M63 124C63.5523 124 64 124.448 64 125V133C64 133.552 63.5523 134 63 134C62.4477 134 62 133.552 62 133V125C62 124.448 62.4477 124 63 124Z" fill="url(#paint7_linear_2_22)"/>
<path fill-rule="evenodd" clip-rule="evenodd" d="M78 124C78.5523 124 79 124.448 79 125V133C79 133.552 78.5523 134 78 134C77.4477 134 77 133.552 77 133V125C77 124.448 77.4477 124 78 124Z" fill="url(#paint8_linear_2_22)"/>
<path fill-rule="evenodd" clip-rule="evenodd" d="M88 129C88 128.448 88.4477 128 89 128H106C106.552 128 107 128.448 107 129C107 129.552 106.552 130 106 130H89C88.4477 130 88 129.552 88 129Z" fill="url(#paint9_linear_2_22)"/>
<path fill-rule="evenodd" clip-rule="evenodd" d="M124.001 123.333C120.871 123.333 118.334 125.87 118.334 129C118.334 132.13 120.871 134.667 124.001 134.667C127.131 134.667 129.668 132.13 129.668 129C129.668 125.87 127.131 123.333 124.001 123.333ZM116.334 129C116.334 124.766 119.767 121.333 124.001 121.333C128.235 121.333 131.668 124.766 131.668 129C131.668 133.234 128.235 136.667 124.001 136.667C119.767 136.667 116.334 133.234 116.334 129Z" fill="url(#paint10_linear_2_22)"/>
<path fill-rule="evenodd" clip-rule="evenodd" d="M18 89C18.5523 89 19 89.4477 19 90V97C19 97.5523 18.5523 98 18 98C17.4477 98 17 97.5523 17 97V90C17 89.4477 17.4477 89 18 89Z" fill="url(#paint11_linear_2_22)"/>
<path fill-rule="evenodd" clip-rule="evenodd" d="M33 89C33.5523 89 34 89.4477 34 90V97C34 97.5523 33.5523 98 33 98C32.4477 98 32 97.5523 32 97V90C32 89.4477 32.4477 89 33 89Z" fill="url(#paint12_linear_2_22)"/>
<path fill-rule="evenodd" clip-rule="evenodd" d="M48 89C48.5523 89 49 89.4477 49 90V97C49 97.5523 48.5523 98 48 98C47.4477 98 47 97.5523 47 97V90C47 89.4477 47.4477 89 48 89Z" fill="url(#paint13_linear_2_22)"/>
<path fill-rule="evenodd" clip-rule="evenodd" d="M63 89C63.5523 89 64 89.4477 64 90V97C64 97.5523 63.5523 98 63 98C62.4477 98 62 97.5523 62 97V90C62 89.4477 62.4477 89 63 89Z" fill="url(#paint14_linear_2_22)"/>
<path fill-rule="evenodd" clip-rule="evenodd" d="M78 89C78.5523 89 79 89.4477 79 90V97C79 97.5523 78.5523 98 78 98C77.4477 98 77 97.5523 77 97V90C77 89.4477 77.4477 89 78 89Z" fill="url(#paint15_linear_2_22)"/>
<path fill-rule="evenodd" clip-rule="evenodd" d="M88 94C88 93.4477 88.4477 93 89 93H106C106.552 93 107 93.4477 107 94C107 94.5523 106.552 95 106 95H89C88.4477 95 88 94.5523 88 94Z" fill="url(#paint16_linear_2_22)"/>
<path fill-rule="evenodd" clip-rule="evenodd" d="M124.001 88.002C120.871 88.002 118.334 90.5392 118.334 93.669C118.334 96.7988 120.871 99.336 124.001 99.336C127.131 99.336 129.668 96.7988 129.668 93.669C129.668 90.5392 127.131 88.002 124.001 88.002ZM116.334 93.669C116.334 89.4346 119.767 86.002 124.001 86.002C128.235 86.002 131.668 89.4346 131.668 93.669C131.668 97.9034 128.235 101.336 124.001 101.336C119.767 101.336 116.334 97.9034 116.334 93.669Z" fill="url(#paint17_linear_2_22)"/>
<path fill-rule="evenodd" clip-rule="evenodd" d="M18 54C18.5523 54 19 54.4477 19 55V62C19 62.5523 18.5523 63 18 63C17.4477 63 17 62.5523 17 62V55C17 54.4477 17.4477 54 18 54Z" fill="url(#paint18_linear_2_22)"/>
<path fill-rule="evenodd" clip-rule="evenodd" d="M33 54C33.5523 54 34 54.4477 34 55V62C34 62.5523 33.5523 63 33 63C32.4477 63 32 62.5523 32 62V55C32 54.4477 32.4477 54 33 54Z" fill="url(#paint19_linear_2_22)"/>
<path fill-rule="evenodd" clip-rule="evenodd" d="M48 54C48.5523 54 49 54.4477 49 55V62C49 62.5523 48.5523 63 48 63C47.4477 63 47 62.5523 47 62V55C47 54.4477 47.4477 54 48 54Z" fill="url(#paint20_linear_2_22)"/>
<path fill-rule="evenodd" clip-rule="evenodd" d="M63 54C63.5523 54 64 54.4477 64 55V62C64 62.5523 63.5523 63 63 63C62.4477 63 62 62.5523 62 62V55C62 54.4477 62.4477 54 63 54Z" fill="url(#paint21_linear_2_22)"/>
<path fill-rule="evenodd" clip-rule="evenodd" d="M78 54C78.5523 54 79 54.4477 79 55V62C79 62.5523 78.5523 63 78 63C77.4477 63 77 62.5523 77 62V55C77 54.4477 77.4477 54 78 54Z" fill="url(#paint22_linear_2_22)"/>
<path fill-rule="evenodd" clip-rule="evenodd" d="M88 58C88 57.4477 88.4477 57 89 57H106C106.552 57 107 57.4477 107 58C107 58.5523 106.552 59 106 59H89C88.4477 59 88 58.5523 88 58Z" fill="url(#paint23_linear_2_22)"/>
<path fill-rule="evenodd" clip-rule="evenodd" d="M124.001 52.67C120.871 52.67 118.334 55.2072 118.334 58.337C118.334 61.4668 120.871 64.004 124.001 64.004C127.131 64.004 129.668 61.4668 129.668 58.337C129.668 55.2072 127.131 52.67 124.001 52.67ZM116.334 58.337C116.334 54.1027 119.767 50.67 124.001 50.67C128.235 50.67 131.668 54.1027 131.668 58.337C131.668 62.5714 128.235 66.004 124.001 66.004C119.767 66.004 116.334 62.5714 116.334 58.337Z" fill="url(#paint24_linear_2_22)"/>
<path fill-rule="evenodd" clip-rule="evenodd" d="M26 12C26 11.4477 26.4477 11 27 11H101C101.552 11 102 11.4477 102 12C102 12.5523 101.552 13 101 13H27C26.4477 13 26 12.5523 26 12Z" fill="url(#paint25_linear_2_22)"/>
<path fill-rule="evenodd" clip-rule="evenodd" d="M111 12C111 11.4477 111.448 11 112 11H121C121.552 11 122 11.4477 122 12C122 12.5523 121.552 13 121 13H112C111.448 13 111 12.5523 111 12Z" fill="url(#paint26_linear_2_22)"/>
<defs>
<linearGradient id="paint0_linear_2_22" x1="148" y1="148" x2="-30.1033" y2="85.3184" gradientUnits="userSpaceOnUse">
<stop stop-color="#EE82EE"/>
<stop offset="1" stop-color="#28A1E6"/>
</linearGradient>
<linearGradient id="paint1_linear_2_22" x1="148" y1="148" x2="-30.1033" y2="85.3184" gradientUnits="userSpaceOnUse">
<stop stop-color="#EE82EE"/>
<stop offset="1" stop-color="#28A1E6"/>
</linearGradient>
<linearGradient id="paint2_linear_2_22" x1="148" y1="148" x2="-30.1033" y2="85.3184" gradientUnits="userSpaceOnUse">
<stop stop-color="#EE82EE"/>
<stop offset="1" stop-color="#28A1E6"/>
</linearGradient>
<linearGradient id="paint3_linear_2_22" x1="148" y1="148" x2="-30.1033" y2="85.3184" gradientUnits="userSpaceOnUse">
<stop stop-color="#EE82EE"/>
<stop offset="1" stop-color="#28A1E6"/>
</linearGradient>
<linearGradient id="paint4_linear_2_22" x1="148" y1="148" x2="-30.1033" y2="85.3184" gradientUnits="userSpaceOnUse">
<stop stop-color="#EE82EE"/>
<stop offset="1" stop-color="#28A1E6"/>
</linearGradient>
<linearGradient id="paint5_linear_2_22" x1="148" y1="148" x2="-30.1033" y2="85.3184" gradientUnits="userSpaceOnUse">
<stop stop-color="#EE82EE"/>
<stop offset="1" stop-color="#28A1E6"/>
</linearGradient>
<linearGradient id="paint6_linear_2_22" x1="148" y1="148" x2="-30.1033" y2="85.3184" gradientUnits="userSpaceOnUse">
<stop stop-color="#EE82EE"/>
<stop offset="1" stop-color="#28A1E6"/>
</linearGradient>
<linearGradient id="paint7_linear_2_22" x1="148" y1="148" x2="-30.1033" y2="85.3184" gradientUnits="userSpaceOnUse">
<stop stop-color="#EE82EE"/>
<stop offset="1" stop-color="#28A1E6"/>
</linearGradient>
<linearGradient id="paint8_linear_2_22" x1="148" y1="148" x2="-30.1033" y2="85.3184" gradientUnits="userSpaceOnUse">
<stop stop-color="#EE82EE"/>
<stop offset="1" stop-color="#28A1E6"/>
</linearGradient>
<linearGradient id="paint9_linear_2_22" x1="148" y1="148" x2="-30.1033" y2="85.3184" gradientUnits="userSpaceOnUse">
<stop stop-color="#EE82EE"/>
<stop offset="1" stop-color="#28A1E6"/>
</linearGradient>
<linearGradient id="paint10_linear_2_22" x1="148" y1="148" x2="-30.1033" y2="85.3184" gradientUnits="userSpaceOnUse">
<stop stop-color="#EE82EE"/>
<stop offset="1" stop-color="#28A1E6"/>
</linearGradient>
<linearGradient id="paint11_linear_2_22" x1="148" y1="148" x2="-30.1033" y2="85.3184" gradientUnits="userSpaceOnUse">
<stop stop-color="#EE82EE"/>
<stop offset="1" stop-color="#28A1E6"/>
</linearGradient>
<linearGradient id="paint12_linear_2_22" x1="148" y1="148" x2="-30.1033" y2="85.3184" gradientUnits="userSpaceOnUse">
<stop stop-color="#EE82EE"/>
<stop offset="1" stop-color="#28A1E6"/>
</linearGradient>
<linearGradient id="paint13_linear_2_22" x1="148" y1="148" x2="-30.1033" y2="85.3184" gradientUnits="userSpaceOnUse">
<stop stop-color="#EE82EE"/>
<stop offset="1" stop-color="#28A1E6"/>
</linearGradient>
<linearGradient id="paint14_linear_2_22" x1="148" y1="148" x2="-30.1033" y2="85.3184" gradientUnits="userSpaceOnUse">
<stop stop-color="#EE82EE"/>
<stop offset="1" stop-color="#28A1E6"/>
</linearGradient>
<linearGradient id="paint15_linear_2_22" x1="148" y1="148" x2="-30.1033" y2="85.3184" gradientUnits="userSpaceOnUse">
<stop stop-color="#EE82EE"/>
<stop offset="1" stop-color="#28A1E6"/>
</linearGradient>
<linearGradient id="paint16_linear_2_22" x1="148" y1="148" x2="-30.1033" y2="85.3184" gradientUnits="userSpaceOnUse">
<stop stop-color="#EE82EE"/>
<stop offset="1" stop-color="#28A1E6"/>
</linearGradient>
<linearGradient id="paint17_linear_2_22" x1="148" y1="148" x2="-30.1033" y2="85.3184" gradientUnits="userSpaceOnUse">
<stop stop-color="#EE82EE"/>
<stop offset="1" stop-color="#28A1E6"/>
</linearGradient>
<linearGradient id="paint18_linear_2_22" x1="148" y1="148" x2="-30.1033" y2="85.3184" gradientUnits="userSpaceOnUse">
<stop stop-color="#EE82EE"/>
<stop offset="1" stop-color="#28A1E6"/>
</linearGradient>
<linearGradient id="paint19_linear_2_22" x1="148" y1="148" x2="-30.1033" y2="85.3184" gradientUnits="userSpaceOnUse">
<stop stop-color="#EE82EE"/>
<stop offset="1" stop-color="#28A1E6"/>
</linearGradient>
<linearGradient id="paint20_linear_2_22" x1="148" y1="148" x2="-30.1033" y2="85.3184" gradientUnits="userSpaceOnUse">
<stop stop-color="#EE82EE"/>
<stop offset="1" stop-color="#28A1E6"/>
</linearGradient>
<linearGradient id="paint21_linear_2_22" x1="148" y1="148" x2="-30.1033" y2="85.3184" gradientUnits="userSpaceOnUse">
<stop stop-color="#EE82EE"/>
<stop offset="1" stop-color="#28A1E6"/>
</linearGradient>
<linearGradient id="paint22_linear_2_22" x1="148" y1="148" x2="-30.1033" y2="85.3184" gradientUnits="userSpaceOnUse">
<stop stop-color="#EE82EE"/>
<stop offset="1" stop-color="#28A1E6"/>
</linearGradient>
<linearGradient id="paint23_linear_2_22" x1="148" y1="148" x2="-30.1033" y2="85.3184" gradientUnits="userSpaceOnUse">
<stop stop-color="#EE82EE"/>
<stop offset="1" stop-color="#28A1E6"/>
</linearGradient>
<linearGradient id="paint24_linear_2_22" x1="148" y1="148" x2="-30.1033" y2="85.3184" gradientUnits="userSpaceOnUse">
<stop stop-color="#EE82EE"/>
<stop offset="1" stop-color="#28A1E6"/>
</linearGradient>
<linearGradient id="paint25_linear_2_22" x1="148" y1="148" x2="-30.1033" y2="85.3184" gradientUnits="userSpaceOnUse">
<stop stop-color="#EE82EE"/>
<stop offset="1" stop-color="#28A1E6"/>
</linearGradient>
<linearGradient id="paint26_linear_2_22" x1="148" y1="148" x2="-30.1033" y2="85.3184" gradientUnits="userSpaceOnUse">
<stop stop-color="#EE82EE"/>
<stop offset="1" stop-color="#28A1E6"/>
</linearGradient>
</defs>
</svg>
