<svg width="70" height="69" viewBox="0 0 70 69" fill="none" xmlns="http://www.w3.org/2000/svg">
<path d="M62.6134 20.1923C62.2674 19.7623 61.6384 19.6923 61.2074 20.0403C60.7774 20.3863 60.7094 21.0162 61.0554 21.4462C62.3854 23.1002 63.5205 24.6742 64.5255 26.2582C67.3325 30.6542 67.3324 38.0842 64.5244 42.4822C57.0574 54.2202 46.2954 60.9532 35.0014 60.9532C31.1044 60.9532 27.2195 60.1493 23.4555 58.5643C22.9505 58.3533 22.3605 58.5883 22.1455 59.0983C21.9315 59.6073 22.1695 60.1933 22.6795 60.4083C26.6895 62.0963 30.8344 62.9532 35.0004 62.9532C46.9934 62.9532 58.3695 55.8832 66.2105 43.5572C69.4445 38.4912 69.4444 30.2483 66.2124 25.1843C65.1684 23.5383 63.9904 21.9063 62.6134 20.1923Z" fill="url(#paint0_linear_2_8)"/>
<path d="M37.4811 47.1022C42.5531 46.1672 46.749 41.9722 47.683 36.9012C47.784 36.3572 47.424 35.8362 46.881 35.7362C46.329 35.6332 45.8161 35.9962 45.7161 36.5382C44.9281 40.8122 41.3931 44.3482 37.1171 45.1362C36.5741 45.2362 36.2151 45.7572 36.3151 46.3012C36.4041 46.7822 36.824 47.1192 37.297 47.1192C37.358 47.1182 37.4201 47.1142 37.4811 47.1022Z" fill="url(#paint1_linear_2_8)"/>
<path d="M69.0412 0.344275C68.6502 -0.0467246 68.0182 -0.0467246 67.6272 0.344275L55.0722 12.8992C55.0472 12.8752 55.0322 12.8423 55.0032 12.8203C48.9292 8.24026 42.0122 5.81925 35.0002 5.81925C23.0072 5.81925 11.6312 12.8893 3.7902 25.2153C0.556198 30.2813 0.556222 38.5242 3.78922 43.5892C6.45922 47.7782 9.5622 51.4083 13.0142 54.3773C13.1292 54.4773 13.2622 54.5343 13.4002 54.5723L0.961219 67.0123C0.570219 67.4033 0.570219 68.0353 0.961219 68.4263C1.15622 68.6213 1.41225 68.7192 1.66825 68.7192C1.92425 68.7192 2.18022 68.6213 2.37522 68.4263L27.2742 43.5263L44.1412 26.6592L69.0412 1.75925C69.4322 1.36725 69.4322 0.735275 69.0412 0.344275ZM14.3182 52.8613C11.0142 50.0193 8.0402 46.5383 5.4752 42.5133C2.6682 38.1173 2.66823 30.6873 5.47623 26.2893C12.9432 14.5513 23.7052 7.81824 34.9992 7.81824C41.5192 7.81824 47.9642 10.0683 53.6532 14.3163L43.3982 24.5712C41.0532 22.5572 38.1112 21.4512 34.9992 21.4512C27.8672 21.4512 22.0652 27.2533 22.0652 34.3853C22.0652 37.4973 23.1712 40.4402 25.1852 42.7842L14.6122 53.3583C14.5632 53.1733 14.4762 52.9953 14.3182 52.8613ZM26.5982 41.3723C24.9592 39.4093 24.0672 36.9643 24.0672 34.3853C24.0672 28.3573 28.9722 23.4512 35.0012 23.4512C37.5802 23.4512 40.0252 24.3442 41.9882 25.9822L26.5982 41.3723Z" fill="url(#paint2_linear_2_8)"/>
<defs>
<linearGradient id="paint0_linear_2_8" x1="68.6362" y1="62.9532" x2="13.5991" y2="42.0412" gradientUnits="userSpaceOnUse">
<stop stop-color="#EE82EE"/>
<stop offset="1" stop-color="#28A1E6"/>
</linearGradient>
<linearGradient id="paint1_linear_2_8" x1="47.7" y1="47.1192" x2="33.9795" y2="42.2899" gradientUnits="userSpaceOnUse">
<stop stop-color="#EE82EE"/>
<stop offset="1" stop-color="#28A1E6"/>
</linearGradient>
<linearGradient id="paint2_linear_2_8" x1="69.3345" y1="68.7192" x2="-13.2993" y2="39.6379" gradientUnits="userSpaceOnUse">
<stop stop-color="#EE82EE"/>
<stop offset="1" stop-color="#28A1E6"/>
</linearGradient>
</defs>
</svg>
