<svg width="68" height="69" viewBox="0 0 68 69" fill="none" xmlns="http://www.w3.org/2000/svg">
<path d="M34 38.3853C28.854 38.3853 24.666 42.5732 24.666 47.7192C24.666 52.8652 28.854 57.0513 34 57.0513C39.146 57.0513 43.334 52.8642 43.334 47.7192C43.334 42.5732 39.146 38.3853 34 38.3853ZM34 55.0513C29.956 55.0513 26.666 51.7622 26.666 47.7192C26.666 43.6752 29.956 40.3853 34 40.3853C38.044 40.3853 41.334 43.6752 41.334 47.7192C41.334 51.7622 38.044 55.0513 34 55.0513Z" fill="url(#paint0_linear_2_61)"/>
<path d="M55 26.5533V21.0513C55 11.2743 52.613 0.0512695 34 0.0512695C15.387 0.0512695 13 11.2743 13 21.0513V26.5533C2.918 27.4213 0 31.8913 0 44.3853V51.0513C0 64.9833 3.40198 68.3853 17.334 68.3853H50.666C64.598 68.3853 68 64.9833 68 51.0513V44.3853C68 31.8913 65.082 27.4213 55 26.5533ZM15 21.0513C15 11.1833 17.302 2.05127 34 2.05127C50.698 2.05127 53 11.1833 53 21.0513V26.4293C52.256 26.4003 51.479 26.3853 50.666 26.3853H17.334C16.521 26.3853 15.744 26.4003 15 26.4293V21.0513ZM66 51.0513C66 63.8063 63.421 66.3853 50.666 66.3853H17.334C4.57898 66.3853 2 63.8063 2 51.0513V44.3853C2 31.3753 4.86598 28.3853 17.334 28.3853H50.666C63.134 28.3853 66 31.3753 66 44.3853V51.0513Z" fill="url(#paint1_linear_2_61)"/>
<defs>
<linearGradient id="paint0_linear_2_61" x1="43.334" y1="57.0513" x2="20.8695" y2="49.1443" gradientUnits="userSpaceOnUse">
<stop stop-color="#EE82EE"/>
<stop offset="1" stop-color="#28A1E6"/>
</linearGradient>
<linearGradient id="paint1_linear_2_61" x1="68" y1="68.3853" x2="-13.9193" y2="39.6956" gradientUnits="userSpaceOnUse">
<stop stop-color="#EE82EE"/>
<stop offset="1" stop-color="#28A1E6"/>
</linearGradient>
</defs>
</svg>
