<svg width="32" height="32" viewBox="0 0 32 32" fill="none" xmlns="http://www.w3.org/2000/svg">
<path d="M8 13.3333V10.6667C8 6.25333 9.33333 2.66667 16 2.66667C22.6667 2.66667 24 6.25333 24 10.6667V13.3333" stroke="white" stroke-width="1.5" stroke-linecap="round" stroke-linejoin="round"/>
<path d="M15.9998 24.6667C17.8408 24.6667 19.3332 23.1743 19.3332 21.3333C19.3332 19.4924 17.8408 18 15.9998 18C14.1589 18 12.6665 19.4924 12.6665 21.3333C12.6665 23.1743 14.1589 24.6667 15.9998 24.6667Z" stroke="white" stroke-width="1.5" stroke-linecap="round" stroke-linejoin="round"/>
<path d="M22.6665 29.3333H9.33317C3.99984 29.3333 2.6665 28 2.6665 22.6667V20C2.6665 14.6667 3.99984 13.3333 9.33317 13.3333H22.6665C27.9998 13.3333 29.3332 14.6667 29.3332 20V22.6667C29.3332 28 27.9998 29.3333 22.6665 29.3333Z" stroke="white" stroke-width="1.5" stroke-linecap="round" stroke-linejoin="round"/>
</svg>
