<svg width="44" height="43" viewBox="0 0 44 43" fill="none" xmlns="http://www.w3.org/2000/svg">
<path d="M32.0047 2.83745C30.0819 1.42719 27.1976 0.766133 23.3957 0.854274L5.08558 1.29498L3.07492 13.3262C4.29853 11.7838 6.00286 11.1672 7.92612 11.0346L8.75599 10.9905H9.8922L10.5914 6.75972L23.2209 6.49486C24.3571 6.40672 25.4496 6.67114 26.4543 7.20043C27.2846 7.6852 27.5909 8.7429 27.3283 10.2854C27.0661 11.8278 26.4543 12.8851 25.4059 13.4144C24.3134 13.9873 23.1335 14.2958 21.9099 14.2958L9.2804 14.5161H8.97449L8.14462 14.5602C5.17255 14.7365 2.41941 17.2926 1.93914 20.2894L0.846191 26.8118L6.26506 33.2897L7.62021 24.4316C8.05722 22.0077 10.0674 20.2449 12.471 20.0686L20.206 19.9364C24.0079 19.8482 27.1107 19.0995 29.5142 17.6006C31.9177 16.1018 33.4472 13.6343 34.0153 10.1527C34.6267 6.67158 33.9712 4.24771 32.0047 2.83745Z" fill="url(#paint0_linear_1_961)"/>
<path d="M12.2083 41.0464C14.1307 42.4567 17.0153 43.0736 20.8173 42.9851L39.1274 42.5889L41.0939 30.4695C39.914 32.0119 38.1659 32.673 36.2431 32.7611L35.4128 32.8052H34.2766L33.6211 37.1241L20.9916 37.4326C19.8554 37.5208 18.7629 37.2563 17.7582 36.7275C16.9279 36.1986 16.6216 35.185 16.8842 33.6426C17.1464 32.1001 17.7582 31.0424 18.7633 30.5131C19.8559 29.9402 21.0358 29.6317 22.2594 29.6317L34.8884 29.3232H35.2384L36.0251 29.2791C38.9967 29.1029 41.7061 26.5468 42.2305 23.5059L43.2789 16.983L37.8163 10.5051L36.5053 19.4069C36.1125 21.7867 33.9274 23.7262 31.6546 23.8139L23.8759 23.9902C20.0739 24.0784 16.9708 24.8716 14.5672 26.37C12.1637 27.868 10.6783 30.3364 10.1102 33.7739C9.54253 37.2559 10.2417 39.6798 12.2083 41.0464Z" fill="url(#paint1_linear_1_961)"/>
<defs>
<linearGradient id="paint0_linear_1_961" x1="12.2253" y1="9.58341" x2="40.1424" y2="42.9352" gradientUnits="userSpaceOnUse">
<stop stop-color="#2B85DE"/>
<stop offset="0.2679" stop-color="#1398F1"/>
<stop offset="0.7539" stop-color="#A854ED"/>
</linearGradient>
<linearGradient id="paint1_linear_1_961" x1="11.8699" y1="9.88022" x2="39.7873" y2="43.2322" gradientUnits="userSpaceOnUse">
<stop stop-color="#2B85DE"/>
<stop offset="0.2679" stop-color="#1398F1"/>
<stop offset="0.7539" stop-color="#A854ED"/>
</linearGradient>
</defs>
</svg>
