<svg xmlns="http://www.w3.org/2000/svg" fill="none" stroke="url(#paint0_linear)" viewBox="0 0 60 51" id="coin" width="100" height="70">
<path d="M27.1,14.7H25l0-2.2h-2l0,2.2h-2.1c-2,0-3.7,1.6-3.7,3.7v2.9c0,2,1.6,3.7,3.7,3.7h6.2c0.9,0,1.7,0.8,1.7,1.7v2.9
		c0,0.9-0.7,1.7-1.7,1.7h-6.2c-0.9,0-1.7-0.8-1.7-1.7v-1.5h-2v1.5c0,2,1.6,3.7,3.7,3.7H23v2.2h2v-2.2h2.1c2,0,3.7-1.6,3.7-3.7v-2.9
		c0-2-1.6-3.7-3.7-3.7h-6.2c-0.9,0-1.7-0.8-1.7-1.7v-2.9c0-0.9,0.7-1.7,1.7-1.7h6.2c0.9,0,1.7,0.8,1.7,1.7v1.5h2v-1.5
		C30.8,16.4,29.1,14.7,27.1,14.7z"></path><path d="M24,0.5c-6.3,0-12.2,2.4-16.6,6.9S0.5,17.7,0.5,24s2.4,12.2,6.9,16.6s10.3,6.9,16.6,6.9s12.2-2.4,16.6-6.9
		s6.9-10.3,6.9-16.6s-2.4-12.2-6.9-16.6S30.3,0.5,24,0.5z M39.2,39.2c-4.1,4.1-9.5,6.3-15.2,6.3c-5.7,0-11.1-2.2-15.2-6.3
		C4.7,35.1,2.5,29.7,2.5,24c0-5.7,2.2-11.1,6.3-15.2c4.1-4.1,9.5-6.3,15.2-6.3c5.7,0,11.1,2.2,15.2,6.3s6.3,9.5,6.3,15.2
		C45.5,29.7,43.3,35.1,39.2,39.2z"></path><path d="M24,6.5C14.4,6.5,6.5,14.4,6.5,24S14.4,41.5,24,41.5S41.5,33.6,41.5,24S33.7,6.5,24,6.5z M24,39.5c-8.5,0-15.5-7-15.5-15.5
		S15.5,8.5,24,8.5s15.5,7,15.5,15.5S32.5,39.5,24,39.5z"></path>
    <defs>
        <linearGradient id="paint0_linear" x1="60" y1="70.2012" x2="-14.3186" y2="47.6713" gradientUnits="userSpaceOnUse">
            <stop stop-color="#EE82EE"/>
            <stop offset="1" stop-color="#28A1EE"/>
        </linearGradient>

    </defs>
</svg>
