<svg width="22" height="18" viewBox="0 0 22 18" fill="white" xmlns="http://www.w3.org/2000/svg">
<path d="M21.6601 2.38998C20.8901 2.71998 20.0101 2.93999 19.1301 3.04999C20.0101 2.49999 20.7801 1.61999 21.1101 0.629991C20.2301 1.17999 19.3501 1.50999 18.2501 1.72999C17.4801 0.849991 16.2701 0.299988 15.0601 0.299988C12.6401 0.299988 10.6601 2.27999 10.6601 4.69999C10.6601 5.02999 10.6601 5.35998 10.7701 5.68998C7.14009 5.46998 3.84009 3.70998 1.64009 1.06998C1.31009 1.72998 1.09009 2.49998 1.09009 3.26998C1.09009 4.80998 1.86009 6.12999 3.07009 6.89999C2.30009 6.89999 1.64009 6.67999 1.09009 6.34999C1.09009 8.43999 2.63009 10.31 4.61009 10.64C4.28009 10.75 3.8401 10.75 3.4001 10.75C3.0701 10.75 2.85009 10.75 2.52009 10.64C3.07009 12.4 4.7201 13.72 6.7001 13.72C5.1601 14.93 3.2901 15.59 1.2001 15.59C0.870098 15.59 0.540098 15.59 0.100098 15.48C2.0801 16.69 4.39009 17.46 6.92009 17.46C15.0601 17.46 19.4601 10.75 19.4601 4.91998V4.36998C20.3401 4.03998 21.1101 3.26998 21.6601 2.38998Z"/>
</svg>
