<?xml version="1.0" encoding="UTF-8"?> <svg xmlns="http://www.w3.org/2000/svg" width="99" height="99" viewBox="0 0 99 99" fill="none"> <rect x="1" y="1" width="97" height="97" stroke="url(#paint0_linear_7_85)" stroke-width="2"></rect> <mask id="path-2-inside-1_7_85" fill="white"> <path fill-rule="evenodd" clip-rule="evenodd" d="M55.302 21.4453L45.0554 24.8637L39.351 22.5469C34.6295 20.6294 33.519 20.2301 32.9055 20.2301C31.9363 20.2301 31.4493 20.4261 30.7626 21.0921C30.1148 21.7207 30.4647 20.6889 25.5335 36.5104C23.8505 41.9101 22.4736 46.4293 22.4736 46.553C22.4736 46.6768 22.596 46.8888 22.7457 47.024C22.9967 47.2508 25.1033 47.2699 50.0259 47.2699C76.0019 47.2699 77.0433 47.2595 77.2802 46.9981C77.4156 46.8487 77.5264 46.6358 77.5264 46.5251C77.5264 46.0452 69.1536 19.5506 68.8813 19.1688C68.7153 18.9361 68.2935 18.5782 67.9438 18.3736C66.7006 17.6462 66.6617 17.6556 55.302 21.4453ZM67.2062 19.8528C67.3768 19.9721 67.5904 20.2563 67.6809 20.4842C67.9499 21.1626 75.4433 45.2753 75.4433 45.463C75.4433 45.5934 69.2221 45.6356 50 45.6356C31.4168 45.6356 24.5567 45.591 24.5567 45.4702C24.5567 45.2881 31.3125 23.5266 31.5753 22.8622C31.7841 22.3345 32.3801 21.8644 32.8405 21.8644C33.0372 21.8644 35.8406 22.936 39.0699 24.2458L44.9417 26.6273L55.4684 23.1423C61.258 21.2256 66.1977 19.6524 66.4455 19.6466C66.6934 19.6406 67.0356 19.7335 67.2062 19.8528ZM12.132 54.1583C11.8651 54.5652 12.0222 55.1901 12.4309 55.3467C12.7535 55.4703 87.2465 55.4703 87.5691 55.3467C87.9778 55.1901 88.1349 54.5652 87.868 54.1583L87.6374 53.8069H50H12.3626L12.132 54.1583ZM32.0129 59.0044C28.0683 60.0689 24.9836 63.1178 23.9367 66.987C23.487 68.6488 23.4889 71.1381 23.9411 72.7411C25.0731 76.7547 28.2399 79.8178 32.2474 80.7753C33.8807 81.1656 36.7297 81.0325 38.3199 80.4916C40.0162 79.9145 41.4238 79.0293 42.7092 77.7316C44.3801 76.0444 45.3413 74.2323 45.801 71.9023L46.0295 70.7439H50H53.9705L54.199 71.9023C54.6587 74.2323 55.6199 76.0444 57.2908 77.7316C58.5762 79.0293 59.9838 79.9145 61.6801 80.4916C63.2703 81.0325 66.1193 81.1656 67.7526 80.7753C70.9031 80.0225 73.6607 77.8854 75.1368 75.0523C76.0593 73.2815 76.3946 71.8808 76.3812 69.8525C76.3597 66.6104 75.4021 64.304 73.1415 62.0499C71.6359 60.5484 70.4494 59.7901 68.6733 59.1941C67.5959 58.8325 67.2714 58.794 65.2511 58.7892C62.8193 58.7836 61.9616 58.9683 60.1324 59.8915C56.9432 61.5014 54.6171 64.7274 54.1022 68.2554L53.9991 68.9611H50H46.0009L45.8978 68.2554C45.2826 64.0409 42.3191 60.5828 38.0967 59.1525C36.6665 58.668 33.5411 58.5919 32.0129 59.0044ZM37.1153 60.6374C40.716 61.5571 43.384 64.385 44.133 68.076C44.9615 72.159 42.8437 76.4809 39.1217 78.3027C37.3187 79.1853 36.2716 79.411 34.3787 79.3254C33.3132 79.2773 32.5063 79.1501 31.8474 78.9264C29.0518 77.9772 26.7159 75.6819 25.74 72.9254C25.2886 71.6506 25.1707 68.9636 25.5073 67.6201C26.0566 65.4264 27.6625 63.1555 29.5485 61.9058C30.3966 61.3436 31.9699 60.6939 32.9634 60.4954C34.0908 60.2703 35.9228 60.333 37.1153 60.6374ZM68.2463 60.8493C69.9184 61.4595 70.6698 61.9428 71.9473 63.2298C73.2991 64.5916 73.9346 65.6664 74.4088 67.3922C74.8236 68.9016 74.766 71.3361 74.2805 72.8261C73.3845 75.5754 71.0257 77.928 68.1526 78.938C66.8421 79.3985 63.7587 79.4369 62.4985 79.0084C59.8875 78.1205 57.8254 76.3857 56.7361 74.161C55.7115 72.068 55.4452 70.1189 55.8881 67.952C56.6255 64.3438 59.5262 61.3775 63.1131 60.5631C64.5711 60.2321 66.9127 60.3626 68.2463 60.8493Z"></path> </mask> <path d="M55.302 21.4453L53.7197 16.7023L53.7197 16.7023L55.302 21.4453ZM45.0554 24.8637L43.1739 29.4962L44.8854 30.1914L46.6377 29.6068L45.0554 24.8637ZM39.351 22.5469L41.2325 17.9144L41.2325 17.9144L39.351 22.5469ZM30.7626 21.0921L27.2814 17.5031L27.2808 17.5037L30.7626 21.0921ZM25.5335 36.5104L30.307 37.9983L30.307 37.9982L25.5335 36.5104ZM22.7457 47.024L26.0984 43.3145L26.0972 43.3135L22.7457 47.024ZM77.2802 46.9981L80.9848 50.356L80.9857 50.3551L77.2802 46.9981ZM68.8813 19.1688L72.9522 16.2657L72.9511 16.2641L68.8813 19.1688ZM67.9438 18.3736L65.4187 22.6891L65.4188 22.6892L67.9438 18.3736ZM67.2062 19.8528L70.0726 15.756L70.0709 15.7548L67.2062 19.8528ZM67.6809 20.4842L72.3288 18.641L72.3282 18.6395L67.6809 20.4842ZM31.5753 22.8622L26.9259 21.023L26.9257 21.0233L31.5753 22.8622ZM39.0699 24.2458L37.1907 28.8792L37.1907 28.8793L39.0699 24.2458ZM44.9417 26.6273L43.0625 31.2607L44.767 31.952L46.5131 31.3739L44.9417 26.6273ZM55.4684 23.1423L53.897 18.3956L53.8969 18.3956L55.4684 23.1423ZM66.4455 19.6466L66.5624 24.6452L66.5653 24.6451L66.4455 19.6466ZM12.132 54.1583L7.95198 51.4147L7.9512 51.4159L12.132 54.1583ZM12.4309 55.3467L14.22 50.6778L14.2197 50.6777L12.4309 55.3467ZM87.5691 55.3467L85.7803 50.6777L85.78 50.6778L87.5691 55.3467ZM87.868 54.1583L92.0488 51.4159L92.048 51.4147L87.868 54.1583ZM87.6374 53.8069L91.8174 51.0633L90.3364 48.8069H87.6374V53.8069ZM12.3626 53.8069V48.8069H9.66362L8.18261 51.0633L12.3626 53.8069ZM32.0129 59.0044L33.3156 63.8317L33.3157 63.8317L32.0129 59.0044ZM23.9367 66.987L28.7631 68.293L28.7631 68.2929L23.9367 66.987ZM23.9411 72.7411L28.7534 71.3839L28.7533 71.3837L23.9411 72.7411ZM32.2474 80.7753L33.4095 75.9123L33.4094 75.9122L32.2474 80.7753ZM38.3199 80.4916L36.7097 75.7579L36.7096 75.758L38.3199 80.4916ZM42.7092 77.7316L46.2616 81.2502L46.2618 81.25L42.7092 77.7316ZM45.801 71.9023L40.8955 70.9345L40.8955 70.9347L45.801 71.9023ZM46.0295 70.7439V65.7439H41.9196L41.1241 69.7761L46.0295 70.7439ZM53.9705 70.7439L58.8759 69.7761L58.0804 65.7439H53.9705V70.7439ZM54.199 71.9023L59.1045 70.9347L59.1045 70.9345L54.199 71.9023ZM57.2908 77.7316L53.7382 81.25L53.7384 81.2502L57.2908 77.7316ZM61.6801 80.4916L63.2904 75.758L63.2903 75.7579L61.6801 80.4916ZM67.7526 80.7753L66.5906 75.9122L66.5905 75.9123L67.7526 80.7753ZM75.1368 75.0523L79.571 77.3627L79.5712 77.3624L75.1368 75.0523ZM76.3812 69.8525L81.3811 69.8195V69.8194L76.3812 69.8525ZM73.1415 62.0499L69.6109 65.5903L69.6111 65.5905L73.1415 62.0499ZM68.6733 59.1941L67.0823 63.9342L67.0825 63.9343L68.6733 59.1941ZM65.2511 58.7892L65.2629 53.7892H65.2627L65.2511 58.7892ZM60.1324 59.8915L57.8796 55.4277L57.8792 55.4279L60.1324 59.8915ZM54.1022 68.2554L59.0497 68.9782L59.0498 68.9775L54.1022 68.2554ZM53.9991 68.9611V73.9611H58.3216L58.9465 69.6839L53.9991 68.9611ZM46.0009 68.9611L41.0535 69.684L41.6784 73.9611H46.0009V68.9611ZM45.8978 68.2554L40.9503 68.9776L40.9504 68.9782L45.8978 68.2554ZM38.0967 59.1525L36.4924 63.8881L36.4925 63.8882L38.0967 59.1525ZM37.1153 60.6374L38.3526 55.7929L38.3521 55.7928L37.1153 60.6374ZM44.133 68.076L49.0331 67.0818L49.0331 67.0817L44.133 68.076ZM39.1217 78.3027L36.9236 73.8118L36.9233 73.8119L39.1217 78.3027ZM34.3787 79.3254L34.6045 74.3305L34.6043 74.3305L34.3787 79.3254ZM31.8474 78.9264L33.4553 74.1919L33.455 74.1918L31.8474 78.9264ZM25.74 72.9254L30.4533 71.2567L30.4532 71.2562L25.74 72.9254ZM25.5073 67.6201L30.3574 68.8351L30.3575 68.8347L25.5073 67.6201ZM29.5485 61.9058L32.3105 66.0737L32.311 66.0733L29.5485 61.9058ZM32.9634 60.4954L31.9845 55.5922L31.9838 55.5923L32.9634 60.4954ZM68.2463 60.8493L66.5321 65.5463L66.5323 65.5463L68.2463 60.8493ZM71.9473 63.2298L68.3987 66.7522L68.3988 66.7523L71.9473 63.2298ZM74.4088 67.3922L69.5875 68.7169L69.5875 68.7171L74.4088 67.3922ZM74.2805 72.8261L79.0344 74.3755L79.0345 74.3752L74.2805 72.8261ZM68.1526 78.938L69.8105 83.6551L69.8107 83.655L68.1526 78.938ZM62.4985 79.0084L60.8888 83.7422L60.889 83.7423L62.4985 79.0084ZM56.7361 74.161L52.2453 76.3593L52.2455 76.3598L56.7361 74.161ZM55.8881 67.952L60.7868 68.9534L60.7869 68.9531L55.8881 67.952ZM63.1131 60.5631L64.2201 65.4391L64.2201 65.4391L63.1131 60.5631ZM53.7197 16.7023L43.473 20.1207L46.6377 29.6068L56.8844 26.1883L53.7197 16.7023ZM46.9368 20.2312L41.2325 17.9144L37.4695 27.1794L43.1739 29.4962L46.9368 20.2312ZM41.2325 17.9144C38.892 16.9639 37.3368 16.3444 36.279 15.9642C35.3924 15.6455 34.1952 15.2301 32.9055 15.2301V25.2301C32.5007 25.2301 32.2465 25.1609 32.2715 25.1673C32.3094 25.177 32.4813 25.2255 32.8965 25.3747C33.7277 25.6735 35.0886 26.2124 37.4695 27.1794L41.2325 17.9144ZM32.9055 15.2301C32.1056 15.2301 31.0246 15.305 29.862 15.7727C28.6937 16.2426 27.861 16.9409 27.2814 17.5031L34.2438 24.6812C34.3508 24.5774 34.105 24.8446 33.5942 25.0501C33.0891 25.2533 32.7362 25.2301 32.9055 25.2301V15.2301ZM27.2808 17.5037C27.6084 17.1859 26.6169 18.0151 26.0155 19.0767C25.6102 19.792 25.3021 20.6642 25.0192 21.498C24.383 23.3739 23.2081 27.1679 20.76 35.0226L30.307 37.9982C32.7901 30.0314 33.9058 26.4306 34.4894 24.7099C34.8165 23.7454 34.8506 23.7688 34.716 24.0064C34.3852 24.5902 33.5929 25.3127 34.2445 24.6806L27.2808 17.5037ZM20.76 35.0226C19.9163 37.7295 19.148 40.2198 18.5895 42.0529C18.3108 42.9676 18.0814 43.7281 17.9203 44.2731C17.8406 44.5426 17.7723 44.777 17.7218 44.9572C17.6977 45.0431 17.6694 45.1458 17.6441 45.2453C17.6325 45.2908 17.6112 45.3759 17.5895 45.4767C17.5791 45.5252 17.5598 45.6177 17.5408 45.7332C17.5341 45.7738 17.4736 46.117 17.4736 46.553H27.4736C27.4736 46.9851 27.4137 47.3224 27.4084 47.3548C27.3908 47.4622 27.3735 47.5444 27.3657 47.5805C27.3493 47.6567 27.3359 47.7088 27.3348 47.713C27.3305 47.7301 27.3334 47.7177 27.3503 47.6577C27.3816 47.5459 27.4341 47.3648 27.5098 47.1088C27.6594 46.6029 27.8795 45.8729 28.1553 44.9675C28.706 43.1601 29.4677 40.6909 30.307 37.9983L20.76 35.0226ZM17.4736 46.553C17.4736 47.9401 18.0324 48.9536 18.2242 49.2855C18.5094 49.7793 18.897 50.2854 19.3943 50.7345L26.0972 43.3135C26.4447 43.6274 26.6963 43.9598 26.8829 44.2829C26.9818 44.454 27.1048 44.6956 27.2132 45.0046C27.3078 45.2745 27.4736 45.8248 27.4736 46.553H17.4736ZM19.3931 50.7334C20.5844 51.8101 21.9456 51.9975 22.1268 52.0285C22.5522 52.101 22.988 52.1318 23.3391 52.1508C24.0893 52.1914 25.2615 52.2153 27.0889 52.2318C30.7908 52.2652 37.577 52.2699 50.0259 52.2699V42.2699C37.5522 42.2699 30.8239 42.2651 27.179 42.2322C25.3331 42.2156 24.374 42.1922 23.8797 42.1654C23.6086 42.1507 23.644 42.1428 23.8087 42.1709C23.8948 42.1856 24.1588 42.2331 24.5006 42.3551C24.8453 42.4782 25.4704 42.747 26.0984 43.3145L19.3931 50.7334ZM50.0259 52.2699C62.9974 52.2699 69.7861 52.2673 73.3551 52.2317C75.1008 52.2143 76.214 52.1885 76.9251 52.1385C77.2401 52.1164 77.7648 52.0732 78.3113 51.9375C79.0282 51.7595 80.0829 51.3511 80.9848 50.356L73.5755 43.6402C74.4182 42.7105 75.3885 42.3596 75.9017 42.2322C76.2444 42.1471 76.446 42.1475 76.2241 42.1631C75.8617 42.1886 75.0465 42.2144 73.2553 42.2322C69.7504 42.2672 63.0304 42.2699 50.0259 42.2699V52.2699ZM80.9857 50.3551C81.3608 49.941 81.6616 49.4928 81.8891 49.0559C82.014 48.8159 82.5264 47.8388 82.5264 46.5251H72.5264C72.5264 45.8081 72.6874 45.2739 72.7594 45.0562C72.8487 44.7857 72.9466 44.5775 73.0191 44.4382C73.1572 44.1728 73.335 43.9057 73.5746 43.6412L80.9857 50.3551ZM82.5264 46.5251C82.5264 46.152 82.4832 45.8602 82.4717 45.782C82.4535 45.6581 82.4341 45.5571 82.4221 45.4972C82.3977 45.3759 82.3725 45.2711 82.3567 45.2073C82.3233 45.0721 82.2845 44.9291 82.2491 44.8019C82.1758 44.5384 82.0757 44.1956 81.9584 43.8014C81.7217 43.0059 81.3877 41.9111 80.9916 40.6275C80.1979 38.0557 79.1392 34.6754 78.0736 31.3035C77.008 27.9316 75.9322 24.5575 75.1043 21.998C74.6911 20.7205 74.3356 19.6334 74.0725 18.8473C73.9421 18.4578 73.8271 18.1202 73.7358 17.8628C73.6918 17.7386 73.6413 17.5991 73.5908 17.4691C73.567 17.4078 73.527 17.3066 73.4766 17.192C73.4518 17.1356 73.4087 17.04 73.351 16.9259C73.3156 16.8559 73.1776 16.5817 72.9522 16.2657L64.8104 22.0718C64.5893 21.7618 64.4566 21.4968 64.4274 21.439C64.3759 21.3372 64.34 21.257 64.3233 21.2191C64.3042 21.1757 64.2906 21.1427 64.2835 21.1254C64.276 21.1068 64.2711 21.0943 64.2694 21.0899C64.2665 21.0825 64.2785 21.1135 64.3107 21.2045C64.372 21.3774 64.4648 21.6486 64.5895 22.021C64.8364 22.7588 65.1797 23.808 65.5897 25.0756C66.4083 27.6062 67.4767 30.9573 68.5384 34.3168C69.6 37.6763 70.6515 41.0335 71.4362 43.5763C71.8293 44.85 72.1516 45.9068 72.3738 46.6536C72.486 47.0306 72.5661 47.3065 72.6155 47.484C72.6415 47.5773 72.6497 47.6104 72.6481 47.6037C72.647 47.5993 72.6439 47.5866 72.6395 47.5676C72.6354 47.5498 72.6278 47.5157 72.6186 47.4702C72.6106 47.4303 72.5942 47.3463 72.578 47.2362C72.5686 47.1718 72.5264 46.8907 72.5264 46.5251H82.5264ZM72.9511 16.2641C72.5143 15.6521 72.0042 15.1923 71.7157 14.9476C71.3735 14.6573 70.9442 14.3362 70.4688 14.058L65.4188 22.6892C65.3433 22.645 65.3 22.6142 65.2867 22.6046C65.2707 22.5931 65.2593 22.584 65.2471 22.5737C65.2371 22.5652 65.2034 22.5363 65.1501 22.4822C65.1224 22.454 65.0803 22.4097 65.0283 22.3497C64.9786 22.2923 64.9013 22.1991 64.8116 22.0734L72.9511 16.2641ZM70.4689 14.0581C70.1826 13.8905 69.135 13.2269 67.6301 13.0485C66.3479 12.8965 65.1492 13.135 64.2361 13.3569C62.3878 13.806 59.2553 14.8555 53.7197 16.7023L56.8844 26.1883C62.7084 24.2453 65.2752 23.3954 66.5971 23.0742C67.2691 22.9109 67.0232 23.0466 66.4529 22.979C65.66 22.885 65.0835 22.493 65.4187 22.6891L70.4689 14.0581ZM64.3399 23.9496C64.046 23.744 63.8483 23.552 63.7449 23.4451C63.6299 23.3261 63.5425 23.2195 63.4769 23.1322C63.3728 22.9938 63.1942 22.7335 63.0336 22.3289L72.3282 18.6395C72.0771 18.007 71.7464 17.4907 71.4703 17.1234C71.2197 16.79 70.7575 16.2352 70.0726 15.756L64.3399 23.9496ZM63.033 22.3274C63.0105 22.2707 63.4387 23.6017 64.2367 26.1442C64.9752 28.4971 65.9356 31.5759 66.8882 34.6414C67.8409 37.7071 68.7845 40.755 69.4893 43.0463C69.842 44.193 70.1331 45.1445 70.3353 45.8122C70.4369 46.1481 70.5128 46.4012 70.5618 46.568C70.5872 46.6546 70.5998 46.6989 70.6037 46.7131C70.6069 46.7245 70.5988 46.696 70.5867 46.6477C70.5817 46.6276 70.5652 46.5612 70.5467 46.4724C70.5378 46.4295 70.5202 46.3422 70.5027 46.2303C70.4948 46.1796 70.4433 45.8661 70.4433 45.463H80.4433C80.4433 45.0584 80.3916 44.7427 80.3832 44.689C80.3653 44.5742 80.347 44.4833 80.3372 44.436C80.3169 44.3385 80.2977 44.2604 80.2891 44.2259C80.2698 44.1488 80.2509 44.0801 80.2399 44.0403C80.2155 43.9522 80.186 43.8504 80.1565 43.7499C80.0956 43.5425 80.0101 43.2577 79.9064 42.915C79.6977 42.2255 79.4013 41.2571 79.0473 40.1063C78.3387 37.8024 77.392 34.7446 76.4377 31.6738C75.4834 28.6029 74.52 25.5146 73.7778 23.1497C73.0951 20.9744 72.4857 19.0369 72.3288 18.641L63.033 22.3274ZM70.4433 45.463C70.4433 42.7938 72.3839 41.4916 72.71 41.2793C73.2686 40.9155 73.7663 40.7553 73.9182 40.7073C74.2931 40.5889 74.5904 40.5472 74.6333 40.5408C74.7934 40.517 74.8841 40.5138 74.8108 40.5186C74.7085 40.5253 74.4735 40.5357 74.0448 40.5466C73.2105 40.5676 71.8714 40.5849 69.896 40.5983C65.9573 40.625 59.6126 40.6356 50 40.6356V50.6356C59.6095 50.6356 65.9864 50.6251 69.9639 50.5981C71.9466 50.5846 73.3642 50.5669 74.2971 50.5434C74.7519 50.5319 75.1532 50.5176 75.4661 50.4971C75.6004 50.4883 75.8436 50.4708 76.1043 50.432C76.1974 50.4181 76.532 50.3688 76.9316 50.2425C77.0959 50.1906 77.6028 50.0265 78.1675 49.6588C78.4997 49.4424 80.4433 48.1362 80.4433 45.463H70.4433ZM50 40.6356C40.708 40.6356 34.362 40.6244 30.3421 40.5983C28.3273 40.5852 26.9229 40.5685 26.0323 40.5483C25.5772 40.538 25.3071 40.5278 25.1727 40.5201C25.0866 40.5152 25.145 40.5162 25.2686 40.5319C25.2971 40.5355 25.5478 40.5652 25.8699 40.6514C25.9913 40.6839 26.4441 40.8051 26.969 41.0935C27.2288 41.2362 27.759 41.5547 28.2767 42.1308C28.8255 42.7415 29.5567 43.8795 29.5567 45.4702H19.5567C19.5567 47.0628 20.2886 48.2028 20.8391 48.8153C21.3586 49.3932 21.8912 49.7136 22.1544 49.8582C22.6861 50.1502 23.149 50.2751 23.2839 50.3113C23.6332 50.4048 23.9247 50.4415 24.0079 50.4521C24.2411 50.4817 24.465 50.496 24.6028 50.5039C24.9161 50.5218 25.3272 50.5349 25.8056 50.5457C26.7819 50.5679 28.2541 50.585 30.2772 50.5981C34.3332 50.6245 40.7088 50.6356 50 50.6356V40.6356ZM29.5567 45.4702C29.5567 45.853 29.5105 46.1499 29.5015 46.2097C29.4846 46.3223 29.4673 46.4106 29.4582 46.4555C29.4396 46.5475 29.4227 46.6167 29.4171 46.6391C29.4097 46.6696 29.4039 46.6915 29.4015 46.7005C29.4001 46.7059 29.399 46.7099 29.3984 46.7123C29.3977 46.7148 29.3973 46.7162 29.3973 46.7164C29.3972 46.7166 29.3979 46.7139 29.3997 46.7077C29.4014 46.7016 29.4038 46.6932 29.4069 46.6824C29.4131 46.6606 29.4214 46.632 29.4319 46.596C29.4751 46.4481 29.5427 46.2216 29.6342 45.9185C29.8159 45.3163 30.0781 44.4578 30.3961 43.4219C31.0315 41.3525 31.8826 38.5998 32.7426 35.8295C33.6026 33.0593 34.4702 30.2762 35.1385 28.1462C35.8646 25.832 36.2476 24.6437 36.2249 24.7011L26.9257 21.0233C26.7716 21.413 26.2116 23.194 25.5971 25.1526C24.9248 27.2954 24.0541 30.0887 23.1923 32.8646C22.3305 35.6405 21.4762 38.4038 20.8366 40.4867C20.5172 41.527 20.2495 42.4037 20.0607 43.029C19.967 43.3397 19.8892 43.6 19.8333 43.7912C19.8063 43.8835 19.7784 43.9803 19.7548 44.0661C19.7443 44.1046 19.7254 44.174 19.706 44.253C19.6972 44.2887 19.6779 44.3685 19.6576 44.4686C19.6477 44.5175 19.6298 44.6091 19.6124 44.7245C19.603 44.787 19.5567 45.086 19.5567 45.4702H29.5567ZM36.2247 24.7014C35.9476 25.4021 35.5371 25.8332 35.2098 26.0914C35.0229 26.2388 34.7647 26.408 34.4231 26.5522C34.0967 26.6901 33.5522 26.8644 32.8405 26.8644V16.8644C31.0675 16.8644 29.7339 17.6743 29.0173 18.2394C28.2247 18.8646 27.4118 19.7946 26.9259 21.023L36.2247 24.7014ZM32.8405 26.8644C32.3834 26.8644 32.0347 26.7985 31.9566 26.784C31.822 26.7591 31.7208 26.7342 31.6752 26.7226C31.6226 26.7092 31.5848 26.6984 31.5676 26.6934C31.5577 26.6905 31.5504 26.6883 31.5459 26.687C31.5414 26.6856 31.5389 26.6848 31.5386 26.6847C31.5382 26.6846 31.5436 26.6863 31.5556 26.6902C31.5674 26.6941 31.5836 26.6995 31.6045 26.7066C31.6468 26.721 31.702 26.7401 31.7712 26.7647C32.0565 26.8658 32.4831 27.0243 33.0326 27.2343C34.1229 27.6511 35.5989 28.2336 37.1907 28.8792L40.9492 19.6124C39.3116 18.9483 37.7712 18.34 36.6033 17.8936C36.0237 17.672 35.5108 17.4807 35.1142 17.34C34.9215 17.2716 34.7155 17.2007 34.5258 17.1413C34.4356 17.1131 34.297 17.071 34.1395 17.031C34.0618 17.0112 33.9333 16.9801 33.7764 16.951C33.676 16.9324 33.3098 16.8644 32.8405 16.8644V26.8644ZM37.1907 28.8793L43.0625 31.2607L46.8209 21.9938L40.9491 19.6124L37.1907 28.8793ZM46.5131 31.3739L57.0398 27.8889L53.8969 18.3956L43.3703 21.8806L46.5131 31.3739ZM57.0398 27.8889C59.9217 26.9348 62.5853 26.0685 64.5524 25.4421C65.5386 25.128 66.3344 24.8791 66.8896 24.7109C67.1712 24.6256 67.3647 24.569 67.4802 24.5369C67.5421 24.5197 67.546 24.5194 67.5137 24.5272C67.4997 24.5306 67.437 24.5456 67.3462 24.563C67.3394 24.5643 67.0011 24.6349 66.5624 24.6452L66.3286 14.6479C65.8744 14.6586 65.5114 14.7326 65.471 14.7404C65.3467 14.7641 65.2414 14.7886 65.1763 14.8042C65.0415 14.8366 64.9082 14.8727 64.8001 14.9027C64.5754 14.9652 64.2971 15.0475 63.9903 15.1404C63.3687 15.3287 62.5212 15.5941 61.5179 15.9136C59.5057 16.5544 56.8047 17.433 53.897 18.3956L57.0398 27.8889ZM66.5653 24.6451C66.0905 24.6565 65.7456 24.5825 65.5463 24.5285C65.4243 24.4954 65.2737 24.4469 65.1005 24.3736C64.9436 24.3071 64.6657 24.1774 64.3416 23.9508L70.0709 15.7548C69.3299 15.2368 68.5918 14.9932 68.1633 14.877C67.6883 14.7482 67.0483 14.6307 66.3256 14.648L66.5653 24.6451ZM7.9512 51.4159C6.93847 52.9597 6.83444 54.6955 7.17908 56.0659C7.51355 57.3958 8.50942 59.1987 10.6421 60.0158L14.2197 50.6777C15.9437 51.3381 16.6566 52.7503 16.8771 53.6269C17.1077 54.5439 17.0586 55.7638 16.3128 56.9007L7.9512 51.4159ZM10.6418 60.0157C10.8968 60.1056 11.3007 60.2174 11.4471 60.2491C11.5403 60.267 11.6975 60.293 11.7628 60.3023C11.8909 60.3198 11.9939 60.3288 12.0402 60.3326C12.1415 60.341 12.2278 60.3452 12.2701 60.3471C12.366 60.3516 12.4675 60.3544 12.5536 60.3565C12.7349 60.3609 12.9774 60.3646 13.2644 60.3681C13.8442 60.375 14.674 60.3814 15.7109 60.3872C17.788 60.3988 20.7323 60.4085 24.251 60.4162C31.2901 60.4317 40.646 60.4394 50 60.4394C59.354 60.4394 68.7099 60.4317 75.749 60.4162C79.2677 60.4085 82.212 60.3988 84.2891 60.3872C85.326 60.3814 86.1558 60.375 86.7356 60.3681C87.0226 60.3646 87.2651 60.3609 87.4464 60.3565C87.5325 60.3544 87.6339 60.3516 87.7299 60.3471C87.7722 60.3452 87.8585 60.341 87.9598 60.3326C88.0061 60.3288 88.1091 60.3198 88.2372 60.3023C88.3025 60.293 88.4597 60.267 88.5529 60.2491C88.6993 60.2174 89.1032 60.1056 89.3582 60.0157L85.78 50.6778C86.0337 50.5883 86.4358 50.477 86.5798 50.4457C86.6706 50.4283 86.8249 50.4028 86.8866 50.394C87.0078 50.3775 87.1014 50.3695 87.1362 50.3666C87.2146 50.3601 87.2689 50.3578 87.2705 50.3577C87.2851 50.357 87.2701 50.3578 87.2057 50.3594C87.0862 50.3623 86.892 50.3655 86.6156 50.3688C86.0687 50.3754 85.2646 50.3816 84.2331 50.3874C82.1733 50.3989 79.2425 50.4085 75.727 50.4163C68.6979 50.4317 59.3499 50.4394 50 50.4394C40.6501 50.4394 31.3021 50.4317 24.273 50.4163C20.7575 50.4085 17.8267 50.3989 15.7669 50.3874C14.7354 50.3816 13.9313 50.3754 13.3844 50.3688C13.108 50.3655 12.9138 50.3623 12.7943 50.3594C12.7299 50.3578 12.7149 50.357 12.7295 50.3577C12.7311 50.3578 12.7854 50.3601 12.8638 50.3666C12.8986 50.3695 12.9922 50.3775 13.1134 50.394C13.1751 50.4028 13.3294 50.4283 13.4202 50.4457C13.5642 50.477 13.9663 50.5883 14.22 50.6778L10.6418 60.0157ZM89.3579 60.0158C91.4906 59.1987 92.4865 57.3958 92.8209 56.0659C93.1656 54.6955 93.0615 52.9597 92.0488 51.4159L83.6872 56.9007C82.9414 55.7638 82.8923 54.5439 83.1229 53.6269C83.3434 52.7503 84.0563 51.3381 85.7803 50.6777L89.3579 60.0158ZM92.048 51.4147L91.8174 51.0633L83.4574 56.5506L83.688 56.9019L92.048 51.4147ZM87.6374 48.8069H50V58.8069H87.6374V48.8069ZM50 48.8069H12.3626V58.8069H50V48.8069ZM8.18261 51.0633L7.95198 51.4147L16.312 56.9019L16.5426 56.5506L8.18261 51.0633ZM30.7102 54.177C25.0893 55.6939 20.6327 60.0543 19.1102 65.6811L28.7631 68.2929C29.3344 66.1814 31.0473 64.4438 33.3156 63.8317L30.7102 54.177ZM19.1102 65.681C18.4327 68.1849 18.4228 71.5952 19.1289 74.0985L28.7533 71.3837C28.5551 70.6809 28.5413 69.1127 28.7631 68.293L19.1102 65.681ZM19.1289 74.0984C20.7452 79.8292 25.2893 84.2536 31.0854 85.6385L33.4094 75.9122C31.1904 75.382 29.4011 73.6802 28.7534 71.3839L19.1289 74.0984ZM31.0853 85.6384C32.5287 85.9833 34.1635 86.0412 35.5332 85.9772C36.903 85.9132 38.5252 85.7031 39.9302 85.2252L36.7096 75.758C36.5244 75.821 35.927 75.9479 35.0664 75.9881C34.2058 76.0283 33.5994 75.9576 33.4095 75.9123L31.0853 85.6384ZM39.9301 85.2252C42.374 84.3939 44.4427 83.0865 46.2616 81.2502L39.1568 74.213C38.4049 74.9721 37.6585 75.4352 36.7097 75.7579L39.9301 85.2252ZM46.2618 81.25C48.6247 78.8641 50.0565 76.1648 50.7064 72.8699L40.8955 70.9347C40.6262 72.2999 40.1356 73.2247 39.1566 74.2132L46.2618 81.25ZM50.7064 72.8701L50.9349 71.7117L41.1241 69.7761L40.8955 70.9345L50.7064 72.8701ZM46.0295 75.7439H50V65.7439H46.0295V75.7439ZM50 75.7439H53.9705V65.7439H50V75.7439ZM49.0651 71.7117L49.2936 72.8701L59.1045 70.9345L58.8759 69.7761L49.0651 71.7117ZM49.2936 72.8699C49.9435 76.1648 51.3753 78.8641 53.7382 81.25L60.8434 74.2132C59.8644 73.2247 59.3738 72.2999 59.1045 70.9347L49.2936 72.8699ZM53.7384 81.2502C55.5573 83.0865 57.626 84.3939 60.0699 85.2252L63.2903 75.7579C62.3415 75.4352 61.5951 74.9721 60.8432 74.213L53.7384 81.2502ZM60.0698 85.2252C61.4748 85.7031 63.097 85.9132 64.4668 85.9772C65.8365 86.0412 67.4713 85.9833 68.9147 85.6384L66.5905 75.9123C66.4007 75.9576 65.7942 76.0283 64.9336 75.9881C64.073 75.9479 63.4756 75.821 63.2904 75.758L60.0698 85.2252ZM68.9146 85.6384C73.4515 84.5544 77.4147 81.501 79.571 77.3627L70.7026 72.7419C69.9066 74.2697 68.3547 75.4907 66.5906 75.9122L68.9146 85.6384ZM79.5712 77.3624C80.8766 74.8566 81.3997 72.6498 81.3811 69.8195L71.3813 69.8855C71.3894 71.1117 71.2421 71.7064 70.7025 72.7422L79.5712 77.3624ZM81.3811 69.8194C81.3511 65.2833 79.8814 61.7095 76.672 58.5093L69.6111 65.5905C70.9228 66.8985 71.3684 67.9375 71.3813 69.8855L81.3811 69.8194ZM76.6722 58.5094C74.695 56.5378 72.8637 55.3263 70.2641 54.4539L67.0825 63.9343C68.0352 64.254 68.5768 64.5591 69.6109 65.5903L76.6722 58.5094ZM70.2643 54.454C69.6121 54.2351 68.8803 54.0081 67.9033 53.8925C67.0963 53.797 66.212 53.7915 65.2629 53.7892L65.2394 63.7892C65.7407 63.7904 66.0801 63.7937 66.3369 63.8014C66.5898 63.809 66.6942 63.8191 66.7283 63.8232C66.7395 63.8245 66.7272 63.8225 66.7308 63.8234C66.7623 63.8314 66.8452 63.8546 67.0823 63.9342L70.2643 54.454ZM65.2627 53.7892C63.9742 53.7862 62.7081 53.8252 61.4132 54.1041C60.0589 54.3957 58.9482 54.8884 57.8796 55.4277L62.3852 64.3552C63.1458 63.9713 63.3786 63.9101 63.5183 63.88C63.7176 63.8371 64.0962 63.7866 65.2395 63.7892L65.2627 53.7892ZM57.8792 55.4279C53.2398 57.7699 49.9054 62.3897 49.1546 67.5332L59.0498 68.9775C59.3289 67.0652 60.6466 65.2329 62.3856 64.355L57.8792 55.4279ZM49.1547 67.5325L49.0516 68.2382L58.9465 69.6839L59.0497 68.9782L49.1547 67.5325ZM53.9991 63.9611H50V73.9611H53.9991V63.9611ZM50 63.9611H46.0009V73.9611H50V63.9611ZM50.9484 68.2382L50.8453 67.5325L40.9504 68.9782L41.0535 69.684L50.9484 68.2382ZM50.8454 67.5331C49.943 61.3519 45.5989 56.4147 39.7008 54.4168L36.4925 63.8882C39.0392 64.7508 40.6221 66.7298 40.9503 68.9776L50.8454 67.5331ZM39.7009 54.4168C38.2701 53.9321 36.5348 53.7757 35.2133 53.7436C33.8722 53.7109 32.1538 53.7874 30.7101 54.1771L33.3157 63.8317C33.2977 63.8365 33.4517 63.7984 33.814 63.7688C34.1475 63.7416 34.5483 63.7303 34.9699 63.7406C35.3921 63.7509 35.7834 63.7814 36.0992 63.8234C36.4498 63.87 36.561 63.9114 36.4924 63.8881L39.7009 54.4168ZM35.878 65.4819C37.5887 65.9188 38.8587 67.2267 39.2329 69.0704L49.0331 67.0817C47.9092 61.5432 43.8434 57.1953 38.3526 55.7929L35.878 65.4819ZM39.2329 69.0703C39.6123 70.9403 38.5859 72.9982 36.9236 73.8118L41.3198 82.7936C47.1016 79.9637 50.3107 73.3778 49.0331 67.0818L39.2329 69.0703ZM36.9233 73.8119C36.2037 74.1642 35.8991 74.253 35.73 74.2895C35.5764 74.3226 35.3079 74.3623 34.6045 74.3305L34.1529 84.3203C35.3424 84.3741 36.5439 84.3438 37.8378 84.0648C39.1162 83.7892 40.2367 83.3238 41.3201 82.7935L36.9233 73.8119ZM34.6043 74.3305C33.7872 74.2936 33.4974 74.2062 33.4553 74.1919L30.2396 83.6608C31.5152 84.094 32.8392 84.261 34.153 84.3203L34.6043 74.3305ZM33.455 74.1918C32.0933 73.7295 30.9125 72.5535 30.4533 71.2567L21.0267 74.594C22.5194 78.8104 26.0104 82.2248 30.2399 83.6609L33.455 74.1918ZM30.4532 71.2562C30.4836 71.3422 30.4513 71.2715 30.4082 70.9904C30.3697 70.7391 30.3384 70.4232 30.3233 70.0794C30.3083 69.736 30.3116 69.4144 30.3282 69.1531C30.3465 68.8646 30.3733 68.7718 30.3574 68.8351L20.6572 66.4051C20.3181 67.7586 20.2805 69.3205 20.333 70.5176C20.385 71.7053 20.5578 73.27 21.0268 74.5945L30.4532 71.2562ZM30.3575 68.8347C30.6036 67.8521 31.4643 66.6344 32.3105 66.0737L26.7865 57.7379C23.8607 59.6767 21.5097 63.0008 20.6571 66.4055L30.3575 68.8347ZM32.311 66.0733C32.3081 66.0753 32.3282 66.0619 32.3756 66.0349C32.4218 66.0085 32.4834 65.9751 32.5605 65.9361C32.7169 65.8568 32.9058 65.7699 33.11 65.6856C33.3142 65.6013 33.5089 65.5297 33.6748 65.4758C33.7565 65.4493 33.8231 65.4297 33.8735 65.416C33.9255 65.4019 33.9479 65.3975 33.943 65.3985L31.9838 55.5923C30.3514 55.9184 28.1729 56.8189 26.7859 57.7382L32.311 66.0733ZM33.9423 65.3986C33.937 65.3997 33.9592 65.3952 34.0121 65.3888C34.0638 65.3826 34.1335 65.376 34.2207 65.3708C34.3979 65.3601 34.6117 65.357 34.844 65.3649C35.3492 65.3822 35.7286 65.4438 35.8784 65.482L38.3521 55.7928C36.487 55.3167 33.8966 55.2104 31.9845 55.5922L33.9423 65.3986ZM66.5323 65.5463C67.2028 65.791 67.4234 65.916 67.54 65.991C67.6607 66.0686 67.8761 66.2257 68.3987 66.7522L75.496 59.7075C74.741 58.9468 73.942 58.2188 72.9496 57.5805C71.953 56.9395 70.9619 56.5177 69.9603 56.1523L66.5323 65.5463ZM68.3988 66.7523C69.1892 67.5486 69.3577 67.8805 69.5875 68.7169L79.2301 66.0674C78.5115 63.4523 77.409 61.6347 75.4959 59.7074L68.3988 66.7523ZM69.5875 68.7171C69.6253 68.8545 69.6997 69.3206 69.6837 69.9984C69.6677 70.6758 69.5714 71.1394 69.5265 71.2771L79.0345 74.3752C79.4752 73.0228 79.6504 71.5242 79.6809 70.2345C79.7113 68.9451 79.6071 67.4393 79.23 66.0672L69.5875 68.7171ZM69.5266 71.2768C69.1422 72.4564 67.9897 73.6953 66.4944 74.2209L69.8107 83.655C74.0617 82.1607 77.6268 78.6944 79.0344 74.3755L69.5266 71.2768ZM66.4946 74.2208C66.6449 74.168 66.6017 74.2011 66.273 74.2422C65.991 74.2775 65.6319 74.3021 65.2445 74.307C64.8564 74.3118 64.504 74.2959 64.2348 74.2685C63.9105 74.2356 63.9073 74.2063 64.1079 74.2745L60.889 83.7423C62.3588 84.242 64.1521 84.3213 65.3689 84.3062C66.6089 84.2908 68.3688 84.1618 69.8105 83.6551L66.4946 74.2208ZM64.1082 74.2746C62.6004 73.7619 61.6624 72.852 61.2267 71.9622L52.2455 76.3598C53.9884 79.9193 57.1746 82.4792 60.8888 83.7422L64.1082 74.2746ZM61.2269 71.9627C60.6599 70.8045 60.5776 69.9769 60.7868 68.9534L50.9894 66.9506C50.3128 70.2608 50.7631 73.3314 52.2453 76.3593L61.2269 71.9627ZM60.7869 68.9531C61.1316 67.2662 62.5514 65.8179 64.2201 65.4391L62.0062 55.6872C56.5011 56.937 52.1194 61.4214 50.9894 66.9508L60.7869 68.9531ZM64.2201 65.4391C64.3517 65.4092 64.8046 65.356 65.4481 65.3918C65.7389 65.408 66.005 65.4393 66.2216 65.4773C66.452 65.5178 66.5486 65.5523 66.5321 65.5463L69.9605 56.1523C68.6669 55.6802 67.2158 55.4748 66.0046 55.4073C64.7795 55.339 63.3326 55.3861 62.0062 55.6872L64.2201 65.4391Z" fill="url(#paint1_linear_7_85)" mask="url(#path-2-inside-1_7_85)"></path> <defs> <linearGradient id="paint0_linear_7_85" x1="77.5" y1="-4.96886e-06" x2="10" y2="103.5" gradientUnits="userSpaceOnUse"> <stop stop-color="#7298DD"></stop> <stop offset="1" stop-color="#705BA1"></stop> </linearGradient> <linearGradient id="paint1_linear_7_85" x1="73.5" y1="23.5" x2="24.1782" y2="88.2731" gradientUnits="userSpaceOnUse"> <stop offset="0.210777" stop-color="#705BA1"></stop> <stop offset="1" stop-color="#7298DD"></stop> </linearGradient> </defs> </svg> 