<?xml version="1.0" encoding="UTF-8"?> <svg xmlns="http://www.w3.org/2000/svg" width="99" height="99" viewBox="0 0 99 99" fill="none"> <rect x="1" y="1" width="97" height="97" stroke="url(#paint0_linear_7_60)" stroke-width="2"></rect> <path d="M56 66.25V67.5H49.5H43.5V66.25C43.5 62.7982 46.2982 60 49.75 60C53.2018 60 56 62.7982 56 66.25Z" stroke="url(#paint1_linear_7_60)" stroke-width="2"></path> <path d="M37 82.5V69.5C37 68.3954 37.8954 67.5 39 67.5H60C61.1046 67.5 62 68.3954 62 69.5V82.5C62 83.6046 61.1046 84.5 60 84.5H39C37.8954 84.5 37 83.6046 37 82.5Z" stroke="url(#paint2_linear_7_60)" stroke-width="2"></path> <circle cx="50" cy="30" r="17" stroke="url(#paint3_linear_7_60)" stroke-width="2"></circle> <path d="M25 86V64C25 58.4772 29.4772 54 35 54H64C69.5228 54 74 58.4772 74 64V86" stroke="url(#paint4_linear_7_60)" stroke-width="2"></path> <defs> <linearGradient id="paint0_linear_7_60" x1="77.5" y1="-4.96886e-06" x2="10" y2="103.5" gradientUnits="userSpaceOnUse"> <stop stop-color="#7298DD"></stop> <stop offset="1" stop-color="#705BA1"></stop> </linearGradient> <linearGradient id="paint1_linear_7_60" x1="57" y1="59" x2="42.5" y2="69" gradientUnits="userSpaceOnUse"> <stop stop-color="#7298DD"></stop> <stop offset="1" stop-color="#705BA1"></stop> </linearGradient> <linearGradient id="paint2_linear_7_60" x1="57.75" y1="64.75" x2="37" y2="86" gradientUnits="userSpaceOnUse"> <stop stop-color="#7298DD"></stop> <stop offset="1" stop-color="#705BA1"></stop> </linearGradient> <linearGradient id="paint3_linear_7_60" x1="63" y1="12" x2="35" y2="42.5" gradientUnits="userSpaceOnUse"> <stop stop-color="#705BA1"></stop> <stop offset="1" stop-color="#7298DD"></stop> </linearGradient> <linearGradient id="paint4_linear_7_60" x1="25" y1="81.0769" x2="57.6154" y2="51.1115" gradientUnits="userSpaceOnUse"> <stop stop-color="#7298DD"></stop> <stop offset="1" stop-color="#705BA1"></stop> </linearGradient> </defs> </svg> 