<?xml version="1.0" encoding="UTF-8"?> <svg xmlns="http://www.w3.org/2000/svg" width="60" height="62" viewBox="0 0 60 62" fill="none"> <rect x="-0.5" y="0.5" width="47" height="47" transform="matrix(-1 0 0 1 59 0)" stroke="url(#paint0_linear_6_6)"></rect> <rect x="6.5" y="7.5" width="47" height="47" stroke="url(#paint1_linear_6_6)"></rect> <rect x="-0.5" y="0.5" width="47" height="47" transform="matrix(-1 0 0 1 47 14)" stroke="url(#paint2_linear_6_6)"></rect> <path d="M34.8396 26.1981V27.6698H25.4434V26.1981C25.4434 23.6034 27.5468 21.5 30.1415 21.5C32.7362 21.5 34.8396 23.6034 34.8396 26.1981Z" stroke="url(#paint3_linear_6_6)"></path> <path d="M21 38V29.8113C21 28.7068 21.8954 27.8113 23 27.8113H36.9245C38.0291 27.8113 38.9245 28.7068 38.9245 29.8113V38C38.9245 39.1046 38.0291 40 36.9245 40H23C21.8954 40 21 39.1046 21 38Z" stroke="url(#paint4_linear_6_6)"></path> <defs> <linearGradient id="paint0_linear_6_6" x1="1.5" y1="-3.5" x2="48.5" y2="48.5" gradientUnits="userSpaceOnUse"> <stop stop-color="#7298DD"></stop> <stop offset="1" stop-color="#705BA1"></stop> </linearGradient> <linearGradient id="paint1_linear_6_6" x1="7.5" y1="3.5" x2="54.5" y2="55.5" gradientUnits="userSpaceOnUse"> <stop stop-color="#7298DD"></stop> <stop offset="1" stop-color="#705BA1"></stop> </linearGradient> <linearGradient id="paint2_linear_6_6" x1="1.5" y1="-3.5" x2="48.5" y2="48.5" gradientUnits="userSpaceOnUse"> <stop stop-color="#7298DD"></stop> <stop offset="1" stop-color="#705BA1"></stop> </linearGradient> <linearGradient id="paint3_linear_6_6" x1="35.3396" y1="21" x2="24.9434" y2="28.1698" gradientUnits="userSpaceOnUse"> <stop stop-color="#7298DD"></stop> <stop offset="1" stop-color="#705BA1"></stop> </linearGradient> <linearGradient id="paint4_linear_6_6" x1="35.8774" y1="25.8396" x2="21" y2="41.0755" gradientUnits="userSpaceOnUse"> <stop stop-color="#7298DD"></stop> <stop offset="1" stop-color="#705BA1"></stop> </linearGradient> </defs> </svg> 