<svg width="32" height="32" viewBox="0 0 32 32" fill="none" xmlns="http://www.w3.org/2000/svg">
<path d="M19.3732 12.6267L12.6266 19.3733C11.7599 18.5067 11.2266 17.32 11.2266 16C11.2266 13.36 13.3599 11.2267 15.9999 11.2267C17.3199 11.2267 18.5066 11.76 19.3732 12.6267Z" stroke="white" stroke-width="1.5" stroke-linecap="round" stroke-linejoin="round"/>
<path d="M23.7598 7.69333C21.4265 5.93333 18.7598 4.97333 15.9998 4.97333C11.2931 4.97333 6.90646 7.74667 3.85312 12.5467C2.65312 14.4267 2.65312 17.5867 3.85312 19.4667C4.90646 21.12 6.13312 22.5467 7.46646 23.6933" stroke="white" stroke-width="1.5" stroke-linecap="round" stroke-linejoin="round"/>
<path d="M11.2266 26.04C12.7466 26.68 14.3599 27.0267 15.9999 27.0267C20.7066 27.0267 25.0932 24.2533 28.1466 19.4533C29.3466 17.5733 29.3466 14.4133 28.1466 12.5333C27.7066 11.84 27.2266 11.1867 26.7332 10.5733" stroke="white" stroke-width="1.5" stroke-linecap="round" stroke-linejoin="round"/>
<path d="M20.6799 16.9333C20.3333 18.8133 18.7999 20.3467 16.9199 20.6933" stroke="white" stroke-width="1.5" stroke-linecap="round" stroke-linejoin="round"/>
<path d="M12.6265 19.3733L2.6665 29.3333" stroke="white" stroke-width="1.5" stroke-linecap="round" stroke-linejoin="round"/>
<path d="M29.3335 2.66667L19.3735 12.6267" stroke="white" stroke-width="1.5" stroke-linecap="round" stroke-linejoin="round"/>
</svg>
