<svg width="98" height="96" viewBox="0 0 98 96" fill="none" xmlns="http://www.w3.org/2000/svg">
<path d="M71.3 4.51765C66.9 1.31765 60.3 -0.182353 51.6 0.0176471L9.7 1.01765L5.1 28.3176C7.9 24.8176 11.8 23.4176 16.2 23.1176L18.1 23.0176H18.9H20.7L22.3 13.4176L51.2 12.8176C53.8 12.6176 56.3 13.2176 58.6 14.4176C60.5 15.5176 61.2 17.9176 60.6 21.4176C60 24.9176 58.6 27.3176 56.2 28.5176C53.7 29.8176 51 30.5176 48.2 30.5176L19.3 31.0176H18.6L16.7 31.1176C9.9 31.5176 3.6 37.3176 2.5 44.1176L0 58.9176L12.4 73.6176L15.5 53.5176C16.5 48.0176 21.1 44.0176 26.6 43.6176L44.3 43.3176C53 43.1176 60.1 41.4176 65.6 38.0176C71.1 34.6176 74.6 29.0176 75.9 21.1176C77.3 13.2176 75.8 7.71765 71.3 4.51765Z" fill="url(#paint0_linear_1_18)"/>
<path d="M26 91.2176C30.4 94.4176 37 95.8176 45.7 95.6176L87.6 94.7176L92.1 67.2176C89.4 70.7176 85.4 72.2176 81 72.4176L79.1 72.5176H78.3H76.5L75 82.3176L46.1 83.0176C43.5 83.2176 41 82.6176 38.7 81.4176C36.8 80.2176 36.1 77.9176 36.7 74.4176C37.3 70.9176 38.7 68.5176 41 67.3176C43.5 66.0176 46.2 65.3176 49 65.3176L77.9 64.6176H78.7L80.5 64.5176C87.3 64.1176 93.5 58.3177 94.7 51.4177L97.1 36.6176L84.6 21.9176L81.6 42.1176C80.7 47.5176 75.7 51.9176 70.5 52.1176L52.7 52.5176C44 52.7176 36.9 54.5176 31.4 57.9176C25.9 61.3176 22.5 66.9176 21.2 74.7176C19.9 82.6176 21.5 88.1176 26 91.2176Z" fill="url(#paint1_linear_1_18)"/>
<defs>
<linearGradient id="paint0_linear_1_18" x1="0" y1="36.7959" x2="76.4603" y2="36.7959" gradientUnits="userSpaceOnUse">
<stop stop-color="#3688FC"/>
<stop offset="1" stop-color="#65BDD3"/>
</linearGradient>
<linearGradient id="paint1_linear_1_18" x1="20.7828" y1="58.806" x2="97.1" y2="58.806" gradientUnits="userSpaceOnUse">
<stop stop-color="#3688FC"/>
<stop offset="1" stop-color="#8165E8"/>
</linearGradient>
</defs>
</svg>
