<svg width="445" height="96" viewBox="0 0 445 96" fill="none" xmlns="http://www.w3.org/2000/svg">
<path d="M71.3 4.51765C66.9 1.31765 60.3 -0.182353 51.6 0.0176471L9.7 1.01765L5.1 28.3176C7.9 24.8176 11.8 23.4176 16.2 23.1176L18.1 23.0176H20.7L22.3 13.4176L51.2 12.8176C53.8 12.6176 56.3 13.2176 58.6 14.4176C60.5 15.5176 61.2 17.9176 60.6 21.4176C60 24.9176 58.6 27.3176 56.2 28.5176C53.7 29.8176 51 30.5176 48.2 30.5176L19.3 31.0176H18.6L16.7 31.1176C9.9 31.5176 3.6 37.3176 2.5 44.1176L0 58.9176L12.4 73.6176L15.5 53.5176C16.5 48.0176 21.1 44.0176 26.6 43.6176L44.3 43.3176C53 43.1176 60.1 41.4176 65.6 38.0176C71.1 34.6176 74.6 29.0176 75.9 21.1176C77.3 13.2176 75.8 7.71765 71.3 4.51765Z" fill="url(#paint0_linear_273_16)"/>
<path d="M26 91.2176C30.4 94.4176 37 95.8176 45.7 95.6176L87.6 94.7176L92.1 67.2176C89.4 70.7176 85.4 72.2176 81 72.4176L79.1 72.5176H76.5L75 82.3176L46.1 83.0176C43.5 83.2176 41 82.6176 38.7 81.4176C36.8 80.2176 36.1 77.9176 36.7 74.4176C37.3 70.9176 38.7 68.5176 41 67.3176C43.5 66.0176 46.2 65.3176 49 65.3176L77.9 64.6176H78.7L80.5 64.5176C87.3 64.1176 93.5 58.3176 94.7 51.4176L97.1 36.6176L84.6 21.9176L81.6 42.1176C80.7 47.5176 75.7 51.9176 70.5 52.1176L52.7 52.5176C44 52.7176 36.9 54.5176 31.4 57.9176C25.9 61.3176 22.5 66.9176 21.2 74.7176C19.9 82.6176 21.5 88.1176 26 91.2176Z" fill="url(#paint1_linear_273_16)"/>
<path d="M141.272 22.2C145.86 22.2 149.486 22.7427 152.15 23.828C154.814 24.864 156.615 26.64 157.552 29.156C158.539 31.6227 158.711 35.0267 158.07 39.368C157.478 43.7093 156.467 47.064 155.036 49.432C153.655 51.7507 151.681 53.354 149.116 54.242C146.551 55.13 143.171 55.574 138.978 55.574C136.758 55.574 134.587 55.4753 132.466 55.278C130.345 55.0807 128.347 54.834 126.472 54.538C124.647 54.1927 123.093 53.8473 121.81 53.502C120.527 53.1567 119.639 52.8607 119.146 52.614L119.59 47.064C122.55 47.064 125.633 47.064 128.84 47.064C132.047 47.064 135.155 47.064 138.164 47.064C140.137 47.064 141.691 46.842 142.826 46.398C143.961 45.954 144.849 45.1153 145.49 43.882C146.131 42.6487 146.6 40.848 146.896 38.48C147.192 36.4573 147.192 34.8787 146.896 33.744C146.649 32.6093 146.033 31.82 145.046 31.376C144.109 30.932 142.752 30.71 140.976 30.71C136.388 30.71 132.466 30.7593 129.21 30.858C125.954 30.9073 123.759 30.9813 122.624 31.08L122.328 22.94C124.351 22.6933 126.25 22.5207 128.026 22.422C129.802 22.3233 131.726 22.274 133.798 22.274C135.87 22.2247 138.361 22.2 141.272 22.2ZM133.576 22.94L126.398 74H115.15L122.328 22.94H133.576ZM182.585 22.052C185.989 22.052 188.9 22.3233 191.317 22.866C193.784 23.4087 195.658 24.42 196.941 25.9C198.273 27.3307 198.939 29.4273 198.939 32.19C198.939 34.706 198.52 37.0247 197.681 39.146C196.842 41.2673 195.634 43.2653 194.055 45.14C192.526 47.0147 190.7 48.914 188.579 50.838L173.409 64.824C174.692 64.528 175.95 64.3307 177.183 64.232C178.466 64.1333 179.699 64.084 180.883 64.084H196.349L195.017 74H158.535L159.423 67.71C159.571 66.822 159.744 66.008 159.941 65.268C160.188 64.528 160.632 63.8373 161.273 63.196L175.999 49.58C177.972 47.7547 179.822 45.9787 181.549 44.252C183.325 42.476 184.756 40.7493 185.841 39.072C186.976 37.3947 187.543 35.8407 187.543 34.41C187.543 33.5713 187.296 32.9547 186.803 32.56C186.359 32.1653 185.693 31.9187 184.805 31.82C183.917 31.672 182.832 31.598 181.549 31.598C179.773 31.598 178.096 31.6227 176.517 31.672C174.988 31.672 173.36 31.7213 171.633 31.82C169.906 31.9187 167.908 32.0667 165.639 32.264L165.713 23.754C168.278 23.2607 170.572 22.8907 172.595 22.644C174.618 22.3973 176.443 22.2493 178.071 22.2C179.748 22.1013 181.253 22.052 182.585 22.052ZM229.147 22.2C233.735 22.2 237.361 22.7427 240.025 23.828C242.689 24.864 244.49 26.64 245.427 29.156C246.414 31.6227 246.586 35.0267 245.945 39.368C245.353 43.7093 244.342 47.064 242.911 49.432C241.53 51.7507 239.556 53.354 236.991 54.242C234.426 55.13 231.046 55.574 226.853 55.574C224.633 55.574 222.462 55.4753 220.341 55.278C218.22 55.0807 216.222 54.834 214.347 54.538C212.522 54.1927 210.968 53.8473 209.685 53.502C208.402 53.1567 207.514 52.8607 207.021 52.614L207.465 47.064C210.425 47.064 213.508 47.064 216.715 47.064C219.922 47.064 223.03 47.064 226.039 47.064C228.012 47.064 229.566 46.842 230.701 46.398C231.836 45.954 232.724 45.1153 233.365 43.882C234.006 42.6487 234.475 40.848 234.771 38.48C235.067 36.4573 235.067 34.8787 234.771 33.744C234.524 32.6093 233.908 31.82 232.921 31.376C231.984 30.932 230.627 30.71 228.851 30.71C224.263 30.71 220.341 30.7593 217.085 30.858C213.829 30.9073 211.634 30.9813 210.499 31.08L210.203 22.94C212.226 22.6933 214.125 22.5207 215.901 22.422C217.677 22.3233 219.601 22.274 221.673 22.274C223.745 22.2247 226.236 22.2 229.147 22.2ZM221.451 22.94L214.273 74H203.025L210.203 22.94H221.451ZM274.974 22.052C277.391 22.052 279.463 22.126 281.19 22.274C282.917 22.3727 284.495 22.57 285.926 22.866C287.406 23.1127 288.886 23.458 290.366 23.902L288.886 32.116C287.307 32.0173 285.803 31.9433 284.372 31.894C282.991 31.8447 281.535 31.82 280.006 31.82C278.477 31.7707 276.651 31.746 274.53 31.746C272.606 31.746 270.978 31.9927 269.646 32.486C268.314 32.93 267.155 33.7687 266.168 35.002C265.231 36.186 264.441 37.9127 263.8 40.182C263.159 42.402 262.616 45.3127 262.172 48.914C261.58 53.1567 261.358 56.462 261.506 58.83C261.703 61.198 262.394 62.8507 263.578 63.788C264.811 64.7253 266.686 65.194 269.202 65.194C272.705 65.194 275.591 65.1447 277.86 65.046C280.179 64.898 282.448 64.7253 284.668 64.528L285.186 72.89C282.719 73.5807 280.253 74.074 277.786 74.37C275.319 74.7153 272.335 74.888 268.832 74.888C263.553 74.888 259.385 74 256.326 72.224C253.317 70.448 251.343 67.6113 250.406 63.714C249.469 59.7673 249.444 54.538 250.332 48.026C251.072 43.0433 252.034 38.8747 253.218 35.52C254.402 32.1653 255.931 29.5013 257.806 27.528C259.681 25.5547 262.024 24.1487 264.836 23.31C267.648 22.4713 271.027 22.052 274.974 22.052ZM309.307 22.2L303.535 62.53C303.338 63.8127 303.486 64.7253 303.979 65.268C304.522 65.7613 305.533 66.008 307.013 66.008H310.343L310.861 73.482C310.269 73.8273 309.406 74.0987 308.271 74.296C307.186 74.4933 306.1 74.6413 305.015 74.74C303.93 74.8387 303.042 74.888 302.351 74.888C298.848 74.888 296.209 74 294.433 72.224C292.657 70.3987 291.966 67.932 292.361 64.824L298.355 22.2H309.307ZM337.073 36.482C341.563 36.482 345.164 37.148 347.877 38.48C350.591 39.7627 352.416 41.8347 353.353 44.696C354.34 47.5573 354.488 51.4053 353.797 56.24C353.156 60.828 352.046 64.5033 350.467 67.266C348.938 69.9793 346.767 71.928 343.955 73.112C341.143 74.296 337.493 74.888 333.003 74.888C328.563 74.888 324.962 74.2467 322.199 72.964C319.486 71.6813 317.611 69.6093 316.575 66.748C315.589 63.8867 315.416 60.088 316.057 55.352C316.748 50.7147 317.858 47.0393 319.387 44.326C320.917 41.5633 323.112 39.5653 325.973 38.332C328.884 37.0987 332.584 36.482 337.073 36.482ZM336.925 44.474C334.952 44.474 333.349 44.7947 332.115 45.436C330.931 46.0773 329.969 47.2367 329.229 48.914C328.539 50.5913 327.971 53.0333 327.527 56.24C327.133 59.052 327.009 61.2473 327.157 62.826C327.355 64.4047 327.947 65.49 328.933 66.082C329.92 66.674 331.375 66.97 333.299 66.97C335.273 66.97 336.851 66.6493 338.035 66.008C339.219 65.3173 340.157 64.1333 340.847 62.456C341.538 60.7787 342.105 58.4107 342.549 55.352C342.944 52.4413 343.043 50.2213 342.845 48.692C342.697 47.1133 342.13 46.028 341.143 45.436C340.206 44.7947 338.8 44.474 336.925 44.474ZM374.506 37.444L371.028 61.642C370.83 63.1713 370.978 64.232 371.472 64.824C372.014 65.416 372.878 65.712 374.062 65.712C375.788 65.712 377.466 65.2187 379.094 64.232C380.771 63.2453 382.868 61.6667 385.384 59.496L387.012 64.972C383.805 68.376 380.771 70.9167 377.91 72.594C375.048 74.222 372.138 75.036 369.178 75.036C365.626 75.036 363.036 74.1233 361.408 72.298C359.829 70.4233 359.286 67.858 359.78 64.602L363.554 37.444H374.506ZM398.556 37.444L393.524 74H384.94L385.088 64.084L384.126 63.122L387.678 37.444H398.556ZM420.152 36.482C423.507 36.482 426.787 36.704 429.994 37.148C433.201 37.592 435.84 38.2827 437.912 39.22L436.358 43.956C434.138 43.9067 432.115 43.882 430.29 43.882C428.465 43.8327 426.615 43.808 424.74 43.808C423.013 43.808 421.558 43.956 420.374 44.252C419.239 44.4987 418.327 45.0167 417.636 45.806C416.945 46.546 416.378 47.656 415.934 49.136C415.49 50.616 415.095 52.5893 414.75 55.056C414.405 57.6707 414.232 59.7673 414.232 61.346C414.232 62.8753 414.503 63.9853 415.046 64.676C415.589 65.3667 416.501 65.712 417.784 65.712C419.905 65.6627 421.903 65.0213 423.778 63.788C425.702 62.5547 427.774 60.902 429.994 58.83L431.992 63.566C431.252 64.5527 430.265 65.6873 429.032 66.97C427.848 68.2527 426.442 69.5107 424.814 70.744C423.235 71.928 421.509 72.9147 419.634 73.704C417.759 74.4933 415.761 74.888 413.64 74.888C410.877 74.888 408.633 74.222 406.906 72.89C405.229 71.5087 404.094 69.3627 403.502 66.452C402.959 63.492 403.009 59.6687 403.65 54.982C404.193 51.134 404.933 48.0013 405.87 45.584C406.857 43.1173 408.041 41.2427 409.422 39.96C410.853 38.628 412.456 37.7153 414.232 37.222C416.008 36.7287 417.981 36.482 420.152 36.482ZM444.72 22.2L437.468 74H428.81V64.972L427.848 64.306L431.252 38.998L431.918 37.814C431.918 36.5313 431.967 35.2733 432.066 34.04C432.165 32.8067 432.313 31.4993 432.51 30.118L433.768 22.2H444.72Z" fill="white"/>
<defs>
<linearGradient id="paint0_linear_273_16" x1="21.8996" y1="23.2607" x2="85.15" y2="99.4637" gradientUnits="userSpaceOnUse">
<stop stop-color="#2B85DE"/>
<stop offset="0.267855" stop-color="#1398F1"/>
<stop offset="0.75392" stop-color="#A854ED"/>
</linearGradient>
<linearGradient id="paint1_linear_273_16" x1="21.8996" y1="23.2607" x2="85.15" y2="99.4637" gradientUnits="userSpaceOnUse">
<stop stop-color="#2B85DE"/>
<stop offset="0.267855" stop-color="#1398F1"/>
<stop offset="0.75392" stop-color="#A854ED"/>
</linearGradient>
</defs>
</svg>
