<svg width="198" height="44" viewBox="0 0 198 44" fill="none" xmlns="http://www.w3.org/2000/svg">
<g clip-path="url(#clip0_1_949)">
<path d="M70.0218 17.0866C70.0764 18.2091 69.9348 19.2848 69.5952 20.3121C69.2552 21.3293 68.695 22.2239 67.9132 22.9978C67.1314 23.7708 66.1215 24.3904 64.8834 24.8571C63.645 25.3124 62.1482 25.5407 60.3941 25.5407H57.2267L55.9685 33.3909H50.8315L54.5334 10.6034H62.2859C63.5667 10.6034 64.6842 10.7726 65.6351 11.112C66.5851 11.4399 67.3748 11.896 68.0023 12.4786C68.6399 13.0506 69.1237 13.7342 69.4567 14.5283C69.7888 15.311 69.9772 16.1647 70.0218 17.0866ZM64.6496 17.4361C64.6068 16.5564 64.2782 15.8575 63.6655 15.3383C63.052 14.8095 62.1727 14.5437 61.0269 14.5437H59.0258L57.873 21.647H60.2049C61.0138 21.647 61.7016 21.5355 62.2688 21.313C62.8453 21.0803 63.3142 20.7727 63.6738 20.3915C64.0326 19.9992 64.2896 19.5493 64.4434 19.0407C64.6081 18.5326 64.6772 17.9975 64.6496 17.4361Z" fill="white"/>
<path d="M76.5821 29.2267H85.4533L84.7886 33.39H70.4653L70.7288 31.6735C70.9841 30.0208 71.6662 28.485 72.7745 27.065C73.8823 25.6349 75.6845 24.1308 78.1815 22.5522C79.5463 21.6735 80.5151 20.9635 81.0876 20.4227C81.6702 19.8824 82.0905 19.332 82.3471 18.7701C82.6145 18.2086 82.7299 17.5727 82.6958 16.8636C82.656 16.0474 82.3414 15.4071 81.7514 14.9408C81.1724 14.464 80.3775 14.226 79.3693 14.226C77.5099 14.226 75.5997 14.8985 73.6367 16.244L74.4067 11.6514C75.1942 11.2279 76.139 10.8832 77.2402 10.6184C78.3511 10.3535 79.4475 10.2213 80.53 10.2213C82.6831 10.2213 84.3791 10.7347 85.6154 11.7624C86.8622 12.78 87.5291 14.1837 87.6156 15.9738C87.6755 17.2029 87.5378 18.2677 87.2031 19.168C86.8793 20.0578 86.4134 20.852 85.806 21.5514C85.209 22.2402 84.5041 22.8704 83.6917 23.4424C82.8789 24.0145 82.0189 24.5865 81.1121 25.159C79.5419 26.1545 78.4153 26.965 77.7319 27.5904C77.0479 28.2043 76.6647 28.7498 76.5821 29.2267Z" fill="white"/>
<path d="M108.945 17.0866C108.999 18.2091 108.857 19.2848 108.518 20.3121C108.177 21.3293 107.616 22.2239 106.834 22.9978C106.052 23.7708 105.041 24.3904 103.803 24.8571C102.565 25.3124 101.068 25.5407 99.3149 25.5407H96.1471L94.889 33.3909H89.752L93.4534 10.6034H101.206C102.487 10.6034 103.605 10.7726 104.556 11.112C105.507 11.4399 106.295 11.896 106.922 12.4786C107.559 13.0506 108.043 13.7342 108.379 14.5283C108.712 15.311 108.901 16.1647 108.945 17.0866ZM103.57 17.4361C103.528 16.5564 103.2 15.8575 102.586 15.3383C101.972 14.8095 101.094 14.5437 99.9482 14.5437H97.9462L96.7939 21.647H99.1262C99.9346 21.647 100.622 21.5355 101.191 21.313C101.767 21.0803 102.236 20.7727 102.595 20.3915C102.954 19.9992 103.21 19.5493 103.365 19.0407C103.529 18.5326 103.598 17.9975 103.57 17.4361Z" fill="white"/>
<path d="M129.162 16.1166C128.838 15.9474 128.488 15.7773 128.112 15.6085C127.747 15.4392 127.347 15.2903 126.909 15.1634C126.473 15.0259 125.999 14.9148 125.491 14.8297C124.992 14.7447 124.45 14.7024 123.862 14.7024C122.495 14.7024 121.3 14.9408 120.272 15.4176C119.255 15.8839 118.407 16.5137 117.732 17.3087C117.056 18.1033 116.56 19.0248 116.244 20.0733C115.926 21.1221 115.797 22.2301 115.853 23.3944C115.899 24.3582 116.083 25.2114 116.402 25.9531C116.722 26.6944 117.157 27.3198 117.706 27.8283C118.256 28.3255 118.904 28.7076 119.653 28.9724C120.401 29.2267 121.231 29.3536 122.145 29.3536C122.724 29.3536 123.262 29.3162 123.763 29.2426C124.263 29.1575 124.735 29.0517 125.181 28.9244C125.627 28.7864 126.044 28.6331 126.435 28.4638C126.837 28.2942 127.217 28.1139 127.575 27.9231L126.738 32.77C125.977 33.0979 125.127 33.3477 124.191 33.5165C123.264 33.6968 122.214 33.7867 121.036 33.7867C119.46 33.7867 118.037 33.554 116.763 33.0873C115.491 32.6104 114.402 31.9379 113.498 31.0693C112.595 30.2007 111.883 29.1624 111.361 27.9548C110.851 26.7367 110.559 25.3802 110.487 23.8871C110.429 22.6902 110.498 21.5249 110.696 20.391C110.892 19.2465 111.218 18.1716 111.674 17.165C112.14 16.1479 112.734 15.2162 113.461 14.3683C114.197 13.5204 115.071 12.7897 116.08 12.1749C117.101 11.5606 118.265 11.0842 119.572 10.7449C120.889 10.3954 122.351 10.2209 123.959 10.2209C124.568 10.2209 125.158 10.2526 125.728 10.316C126.299 10.38 126.844 10.465 127.364 10.5703C127.883 10.666 128.36 10.777 128.798 10.9044C129.244 11.0212 129.64 11.1371 129.98 11.2539L129.162 16.1166Z" fill="white"/>
<path d="M138.218 33.2473C138.031 33.3006 137.813 33.353 137.564 33.4064C137.325 33.4592 137.064 33.5073 136.783 33.5491C136.513 33.6025 136.226 33.639 135.921 33.6602C135.629 33.6919 135.335 33.7078 135.041 33.7078C134.336 33.7078 133.729 33.6126 133.216 33.4222C132.712 33.2415 132.291 32.9877 131.95 32.6594C131.606 32.32 131.346 31.9229 131.166 31.4677C130.996 31.001 130.899 30.4929 130.872 29.942C130.861 29.7093 130.859 29.4497 130.865 29.1632C130.883 28.8777 130.906 28.5802 130.933 28.273C130.96 27.9553 130.992 27.638 131.028 27.3198C131.076 26.9919 131.123 26.6786 131.172 26.3824C131.197 26.244 131.249 25.9113 131.328 25.3811C131.417 24.8408 131.527 24.1789 131.657 23.3949C131.788 22.6108 131.928 21.7422 132.082 20.789C132.235 19.8247 132.393 18.8446 132.554 17.849C132.727 16.8433 132.889 15.8628 133.042 14.9091C133.195 13.9453 133.336 13.0705 133.467 12.2873C133.597 11.5042 133.701 10.8467 133.781 10.3165C133.87 9.77619 133.928 9.43729 133.952 9.29935H138.995L136.241 26.2709C136.176 26.642 136.105 27.0606 136.033 27.5265C135.961 27.9817 135.933 28.3792 135.949 28.7181C135.969 29.1209 136.109 29.4017 136.368 29.5603C136.629 29.719 136.922 29.7987 137.247 29.7987C137.52 29.7987 137.792 29.7723 138.062 29.719C138.343 29.6555 138.596 29.5762 138.823 29.481C138.717 30.1165 138.616 30.7467 138.52 31.3716C138.425 31.9864 138.324 32.6113 138.218 33.2473Z" fill="white"/>
<path d="M157.146 23.5698C157.182 24.3225 157.145 25.0955 157.038 25.8901C156.929 26.6847 156.735 27.463 156.457 28.2263C156.179 28.9786 155.804 29.6938 155.332 30.3712C154.872 31.049 154.296 31.6426 153.607 32.1512C152.927 32.6483 152.126 33.0463 151.206 33.3429C150.296 33.6395 149.249 33.788 148.061 33.788C146.863 33.788 145.809 33.6135 144.9 33.2636C144.001 32.9141 143.248 32.4315 142.64 31.8176C142.032 31.2033 141.566 30.4774 141.242 29.641C140.917 28.7939 140.731 27.8826 140.684 26.9077C140.647 26.1237 140.686 25.3291 140.805 24.5244C140.923 23.7086 141.127 22.9246 141.415 22.1723C141.715 21.4209 142.106 20.7158 142.589 20.0587C143.071 19.391 143.658 18.8137 144.349 18.3267C145.039 17.8283 145.834 17.4365 146.734 17.1505C147.645 16.8649 148.672 16.7213 149.818 16.7213C150.942 16.7213 151.942 16.8852 152.82 17.214C153.707 17.5317 154.46 17.9927 155.077 18.5964C155.705 19.1901 156.192 19.9098 156.537 20.7577C156.892 21.5937 157.095 22.5311 157.146 23.5698ZM152.122 23.6333C152.1 23.1882 152.028 22.7805 151.905 22.4099C151.781 22.0287 151.608 21.7047 151.386 21.4408C151.172 21.1658 150.915 20.9529 150.614 20.8053C150.312 20.6462 149.968 20.5668 149.579 20.5668C148.916 20.5668 148.331 20.7577 147.826 21.1389C147.328 21.5201 146.918 22.0128 146.589 22.617C146.261 23.2208 146.021 23.8986 145.869 24.6509C145.716 25.4031 145.658 26.155 145.695 26.9073C145.741 27.8711 145.998 28.6181 146.465 29.1478C146.943 29.678 147.539 29.9424 148.253 29.9424C148.935 29.9424 149.525 29.7573 150.022 29.3862C150.529 29.0152 150.942 28.5326 151.26 27.9403C151.588 27.3365 151.823 26.6587 151.965 25.9064C152.106 25.1533 152.159 24.3961 152.122 23.6333Z" fill="white"/>
<path d="M174.898 27.9874C174.827 28.4643 174.762 28.9623 174.703 29.4814C174.643 29.9896 174.593 30.4823 174.554 30.9591C174.514 31.436 174.483 31.8859 174.462 32.3099C174.439 32.7233 174.425 33.0829 174.418 33.3905H169.376C169.393 33.0829 169.41 32.7709 169.426 32.4527C169.453 32.1349 169.479 31.8374 169.508 31.5629C169.536 31.2769 169.561 31.0221 169.582 30.8C169.602 30.5775 169.615 30.4188 169.621 30.3236H169.559C169.174 30.8423 168.756 31.3143 168.303 31.7378C167.862 32.1614 167.391 32.5267 166.891 32.8339C166.402 33.1305 165.888 33.3632 165.35 33.5333C164.822 33.7025 164.28 33.7876 163.723 33.7876C162.389 33.7876 161.357 33.4169 160.628 32.6752C159.909 31.9229 159.516 30.8683 159.451 29.5127C159.443 29.3541 159.448 29.1416 159.467 28.8777C159.486 28.6128 159.51 28.3369 159.537 28.0513C159.576 27.7653 159.609 27.4894 159.639 27.225C159.678 26.9491 159.714 26.7164 159.747 26.5256L161.26 17.1179H166.271L164.778 26.3031C164.744 26.4723 164.712 26.6525 164.679 26.8434C164.656 27.0342 164.633 27.2197 164.611 27.4C164.599 27.5802 164.585 27.7437 164.571 27.8922C164.568 28.0412 164.568 28.1571 164.573 28.2422C164.595 28.7084 164.74 29.0844 165.006 29.3704C165.271 29.6463 165.645 29.7838 166.128 29.7838C166.653 29.7838 167.156 29.6352 167.635 29.3386C168.115 29.0416 168.543 28.6556 168.918 28.1787C169.295 27.7019 169.61 27.1673 169.865 26.5737C170.131 25.98 170.312 25.3873 170.409 24.7937L171.66 17.1183H176.687L174.898 27.9874Z" fill="white"/>
<path d="M194.107 28.0192C194.049 28.3471 193.996 28.7446 193.944 29.2108C193.904 29.6775 193.865 30.1641 193.826 30.6727C193.797 31.1706 193.774 31.6634 193.756 32.1508C193.747 32.6272 193.752 33.0406 193.768 33.3905H188.726C188.719 33.2415 188.715 33.0463 188.714 32.8026C188.723 32.5483 188.731 32.2883 188.739 32.0234C188.758 31.759 188.771 31.5047 188.781 31.261C188.8 31.0067 188.811 30.8057 188.815 30.6572H188.752C188.449 31.123 188.128 31.5475 187.789 31.9287C187.462 32.3099 187.098 32.6378 186.702 32.9136C186.317 33.1895 185.891 33.4006 185.426 33.5491C184.96 33.7078 184.444 33.7876 183.877 33.7876C183.099 33.7876 182.394 33.6496 181.761 33.3742C181.138 33.0983 180.598 32.7012 180.143 32.1825C179.687 31.6523 179.325 31.0005 179.056 30.2275C178.797 29.4435 178.644 28.5533 178.596 27.5577C178.527 26.1277 178.696 24.7606 179.106 23.4579C179.515 22.1446 180.142 20.989 180.986 19.9939C181.842 18.9979 182.901 18.2033 184.164 17.6102C185.428 17.0165 186.883 16.7199 188.533 16.7199C188.953 16.7199 189.38 16.7415 189.813 16.7838C190.256 16.8261 190.615 16.8737 190.891 16.9266L192.144 9.29889H197.108L194.107 28.0192ZM190.352 20.439C190.107 20.3756 189.837 20.328 189.542 20.2962C189.257 20.2645 188.977 20.2487 188.705 20.2487C187.979 20.2487 187.351 20.3703 186.816 20.6144C186.281 20.8581 185.819 21.1807 185.429 21.5835C185.048 21.9762 184.735 22.4257 184.486 22.9339C184.238 23.4323 184.041 23.9404 183.898 24.4596C183.765 24.9677 183.673 25.4662 183.624 25.9536C183.583 26.43 183.572 26.8487 183.59 27.2092C183.609 27.6009 183.669 27.9663 183.769 28.3052C183.869 28.6335 184.003 28.9195 184.173 29.1632C184.354 29.4074 184.572 29.5969 184.832 29.7353C185.1 29.8732 185.408 29.942 185.755 29.942C186.333 29.942 186.84 29.7727 187.275 29.4338C187.72 29.0843 188.103 28.6339 188.423 28.0831C188.753 27.5225 189.022 26.8971 189.23 26.2079C189.438 25.5089 189.603 24.8095 189.727 24.1106L190.352 20.439Z" fill="white"/>
<path d="M32.0047 2.83745C30.0819 1.42719 27.1976 0.766133 23.3957 0.854274L5.08558 1.29498L3.07492 13.3262C4.29853 11.7838 6.00286 11.1672 7.92612 11.0346L8.75599 10.9905H9.8922L10.5914 6.75972L23.2209 6.49486C24.3571 6.40672 25.4496 6.67114 26.4543 7.20043C27.2846 7.6852 27.5909 8.7429 27.3283 10.2854C27.0661 11.8278 26.4543 12.8851 25.4059 13.4144C24.3134 13.9873 23.1335 14.2958 21.9099 14.2958L9.2804 14.5161H8.97449L8.14462 14.5602C5.17255 14.7365 2.41941 17.2926 1.93914 20.2894L0.846191 26.8118L6.26506 33.2897L7.62021 24.4316C8.05722 22.0077 10.0674 20.2449 12.471 20.0686L20.206 19.9364C24.0079 19.8482 27.1107 19.0995 29.5142 17.6006C31.9177 16.1018 33.4472 13.6343 34.0153 10.1527C34.6267 6.67158 33.9712 4.24771 32.0047 2.83745Z" fill="url(#paint0_linear_1_949)"/>
<path d="M12.2083 41.0464C14.1307 42.4567 17.0153 43.0736 20.8173 42.9851L39.1274 42.5889L41.0939 30.4695C39.914 32.0119 38.1659 32.673 36.2431 32.7611L35.4128 32.8052H34.2766L33.6211 37.1241L20.9916 37.4326C19.8554 37.5208 18.7629 37.2563 17.7582 36.7275C16.9279 36.1986 16.6216 35.185 16.8842 33.6426C17.1464 32.1001 17.7582 31.0424 18.7633 30.5131C19.8559 29.9402 21.0358 29.6317 22.2594 29.6317L34.8884 29.3232H35.2384L36.0251 29.2791C38.9967 29.1029 41.7061 26.5468 42.2305 23.5059L43.2789 16.983L37.8163 10.5051L36.5053 19.4069C36.1125 21.7867 33.9274 23.7262 31.6546 23.8139L23.8759 23.9902C20.0739 24.0784 16.9708 24.8716 14.5672 26.37C12.1637 27.868 10.6783 30.3364 10.1102 33.7739C9.54253 37.2559 10.2417 39.6798 12.2083 41.0464Z" fill="url(#paint1_linear_1_949)"/>
</g>
<defs>
<linearGradient id="paint0_linear_1_949" x1="12.2253" y1="9.58341" x2="40.1424" y2="42.9352" gradientUnits="userSpaceOnUse">
<stop stop-color="#2B85DE"/>
<stop offset="0.2679" stop-color="#1398F1"/>
<stop offset="0.7539" stop-color="#A854ED"/>
</linearGradient>
<linearGradient id="paint1_linear_1_949" x1="11.8699" y1="9.88022" x2="39.7873" y2="43.2322" gradientUnits="userSpaceOnUse">
<stop stop-color="#2B85DE"/>
<stop offset="0.2679" stop-color="#1398F1"/>
<stop offset="0.7539" stop-color="#A854ED"/>
</linearGradient>
<clipPath id="clip0_1_949">
<rect width="196.652" height="42.3077" fill="white" transform="translate(0.846191 0.846161)"/>
</clipPath>
</defs>
</svg>
