<?xml version="1.0" encoding="UTF-8"?> <svg xmlns="http://www.w3.org/2000/svg" width="270" height="170" viewBox="0 0 270 170" fill="none"> <rect x="-1" y="-1" width="100.138" height="100.138" transform="matrix(-1.19249e-08 -1 -1 1.19249e-08 242.069 166.672)" stroke="url(#paint0_linear_4_40)" stroke-width="2"></rect> <rect x="-1" y="-1" width="100.138" height="99.9494" transform="matrix(-1.19249e-08 -1 -1 1.19249e-08 267.415 141.138)" stroke="url(#paint1_linear_4_40)" stroke-width="2"></rect> <path d="M243.471 168.113L268.858 142.555" stroke="url(#paint2_linear_4_40)" stroke-width="2"></path> <path d="M243.271 67.3325L268.806 41.798" stroke="url(#paint3_linear_4_40)" stroke-width="2"></path> <path d="M142.503 67.0946L168.039 41.5566" stroke="url(#paint4_linear_4_40)" stroke-width="2"></path> <path d="M142.729 167.874L168.264 142.34" stroke="url(#paint5_linear_4_40)" stroke-width="2"></path> <rect x="-1" y="-1" width="100.138" height="100.138" transform="matrix(-1.19249e-08 -1 -1 1.19249e-08 101.138 167.672)" stroke="url(#paint6_linear_4_40)" stroke-width="2"></rect> <rect x="-1" y="-1" width="100.138" height="99.9494" transform="matrix(-1.19249e-08 -1 -1 1.19249e-08 126.484 142.138)" stroke="url(#paint7_linear_4_40)" stroke-width="2"></rect> <path d="M102.54 169.113L127.926 143.555" stroke="url(#paint8_linear_4_40)" stroke-width="2"></path> <path d="M102.34 68.3325L127.874 42.798" stroke="url(#paint9_linear_4_40)" stroke-width="2"></path> <path d="M1.57187 68.0946L27.1083 42.5566" stroke="url(#paint10_linear_4_40)" stroke-width="2"></path> <path d="M1.798 168.874L27.3325 143.34" stroke="url(#paint11_linear_4_40)" stroke-width="2"></path> <path d="M251.931 2C227.764 2.66667 176.931 2 167.931 2L209.931 56L251.931 2Z" stroke="url(#paint12_linear_4_40)" stroke-width="2"></path> <defs> <linearGradient id="paint0_linear_4_40" x1="101.672" y1="-20.3621" x2="51.0689" y2="102.138" gradientUnits="userSpaceOnUse"> <stop stop-color="#705BA1"></stop> <stop offset="1" stop-color="#7298DD"></stop> </linearGradient> <linearGradient id="paint1_linear_4_40" x1="81.1379" y1="0.483879" x2="-10.3621" y2="98.9839" gradientUnits="userSpaceOnUse"> <stop stop-color="#7298DD"></stop> <stop offset="1" stop-color="#705BA1"></stop> </linearGradient> <linearGradient id="paint2_linear_4_40" x1="268.931" y1="138" x2="245.931" y2="162" gradientUnits="userSpaceOnUse"> <stop stop-color="#705BA1"></stop> <stop offset="1" stop-color="#7298DD"></stop> </linearGradient> <linearGradient id="paint3_linear_4_40" x1="268.931" y1="42" x2="242.931" y2="67" gradientUnits="userSpaceOnUse"> <stop stop-color="#705BA1"></stop> <stop offset="1" stop-color="#7298DD"></stop> </linearGradient> <linearGradient id="paint4_linear_4_40" x1="172.431" y1="36.5" x2="142.931" y2="67" gradientUnits="userSpaceOnUse"> <stop stop-color="#F6F8FD"></stop> <stop offset="0.0001" stop-color="#705BA1"></stop> </linearGradient> <linearGradient id="paint5_linear_4_40" x1="169.931" y1="142" x2="142.931" y2="168" gradientUnits="userSpaceOnUse"> <stop stop-color="#705BA1"></stop> <stop offset="1" stop-color="#7298DD"></stop> </linearGradient> <linearGradient id="paint6_linear_4_40" x1="45.6724" y1="90.2067" x2="104.172" y2="0.206723" gradientUnits="userSpaceOnUse"> <stop stop-color="#705BA1"></stop> <stop offset="1" stop-color="#7298DD"></stop> </linearGradient> <linearGradient id="paint7_linear_4_40" x1="100.138" y1="-8.44727" x2="-2.8621" y2="101.553" gradientUnits="userSpaceOnUse"> <stop stop-color="#705BA1"></stop> <stop offset="1" stop-color="#7298DD"></stop> </linearGradient> <linearGradient id="paint8_linear_4_40" x1="127.926" y1="156.334" x2="102.54" y2="156.334" gradientUnits="userSpaceOnUse"> <stop stop-color="#705BA1"></stop> <stop offset="1" stop-color="#7298DD"></stop> </linearGradient> <linearGradient id="paint9_linear_4_40" x1="127.874" y1="55.5652" x2="102.34" y2="55.5652" gradientUnits="userSpaceOnUse"> <stop stop-color="#705BA1"></stop> <stop offset="1" stop-color="#7298DD"></stop> </linearGradient> <linearGradient id="paint10_linear_4_40" x1="27.1083" y1="55.3256" x2="1.57187" y2="55.3256" gradientUnits="userSpaceOnUse"> <stop stop-color="#705BA1"></stop> <stop offset="1" stop-color="#7298DD"></stop> </linearGradient> <linearGradient id="paint11_linear_4_40" x1="27.3325" y1="156.107" x2="1.798" y2="156.107" gradientUnits="userSpaceOnUse"> <stop stop-color="#705BA1"></stop> <stop offset="1" stop-color="#7298DD"></stop> </linearGradient> <linearGradient id="paint12_linear_4_40" x1="243.931" y1="-5.5" x2="175.431" y2="56" gradientUnits="userSpaceOnUse"> <stop stop-color="#705BA1"></stop> <stop offset="1" stop-color="#7298DD"></stop> </linearGradient> </defs> </svg> 