<svg width="60" height="71" viewBox="0 0 60 71" fill="none" xmlns="http://www.w3.org/2000/svg">
<path d="M52.16 7.64722L35.563 1.41019C34.033 0.851187 32.05 0.544189 29.983 0.544189C27.912 0.544189 25.943 0.854199 24.436 1.4162L7.87402 7.68121C3.45802 9.33121 -0.000976562 14.3562 -0.000976562 19.1192V43.8852C-0.000976562 48.3472 2.76705 53.9112 6.30005 56.5532L20.598 67.2502C23.129 69.1532 26.489 70.2012 30.058 70.2012C33.626 70.2012 36.986 69.1532 39.517 67.2502L53.74 56.5532C57.25 53.9292 60 48.3652 60 43.8852V19.1182C60 14.3292 56.556 9.29022 52.16 7.64722ZM57 43.8852C57 47.4012 54.6849 52.1012 51.9399 54.1532L37.714 64.8522C35.699 66.3682 32.981 67.2022 30.058 67.2022C27.134 67.2022 24.4149 66.3682 22.3979 64.8502L8.09705 54.1512C5.33305 52.0852 2.99902 47.3832 2.99902 43.8852V19.1182C2.99902 15.6412 5.71305 11.6902 8.93005 10.4882L25.491 4.22321C26.649 3.79021 28.286 3.54221 29.983 3.54221C31.684 3.54221 33.343 3.7922 34.522 4.2222L51.1071 10.4552C54.3011 11.6492 57 15.6162 57 19.1172V43.8852Z" fill="url(#paint0_linear_2_47)"/>
<path d="M38.983 25.1012L25.5329 38.5513L21.05 34.0682C20.562 33.5802 19.7709 33.5802 19.2819 34.0682C18.7929 34.5562 18.7939 35.3472 19.2819 35.8362L24.649 41.2032C24.893 41.4472 25.2119 41.5693 25.5329 41.5693C25.8539 41.5693 26.1729 41.4472 26.4169 41.2032L40.7509 26.8692C41.2389 26.3812 41.2389 25.5902 40.7509 25.1012C40.2629 24.6122 39.472 24.6132 38.983 25.1012Z" fill="url(#paint1_linear_2_47)"/>
<defs>
<linearGradient id="paint0_linear_2_47" x1="60" y1="70.2012" x2="-14.3186" y2="47.6713" gradientUnits="userSpaceOnUse">
<stop stop-color="#EE82EE"/>
<stop offset="1" stop-color="#28A1E6"/>
</linearGradient>
<linearGradient id="paint1_linear_2_47" x1="41.1169" y1="41.5693" x2="16.4125" y2="30.1029" gradientUnits="userSpaceOnUse">
<stop stop-color="#EE82EE"/>
<stop offset="1" stop-color="#28A1E6"/>
</linearGradient>
</defs>
</svg>
