<?xml version="1.0" encoding="UTF-8"?> <svg xmlns="http://www.w3.org/2000/svg" width="129" height="129" viewBox="0 0 129 129" fill="none"> <rect x="-1" y="-1" width="100.138" height="100.138" transform="matrix(-1.19249e-08 -1 -1 1.19249e-08 101.138 126.672)" stroke="url(#paint0_linear_5_2640)" stroke-width="2"></rect> <rect x="-1" y="-1" width="100.138" height="99.9494" transform="matrix(-1.19249e-08 -1 -1 1.19249e-08 126.484 101.138)" stroke="url(#paint1_linear_5_2640)" stroke-width="2"></rect> <path d="M102.54 128.113L127.927 102.555" stroke="url(#paint2_linear_5_2640)" stroke-width="2"></path> <path d="M102.34 27.3324L127.874 1.79797" stroke="url(#paint3_linear_5_2640)" stroke-width="2"></path> <path d="M1.57181 27.0945L27.1083 1.55654" stroke="url(#paint4_linear_5_2640)" stroke-width="2"></path> <path d="M1.79794 127.874L27.3324 102.34" stroke="url(#paint5_linear_5_2640)" stroke-width="2"></path> <circle r="16" transform="matrix(1 0 0 -1 64.3269 71.9999)" stroke="url(#paint6_linear_5_2640)" stroke-width="2"></circle> <path d="M64.3269 80.2456C72.8927 80.2456 80.6102 79.2506 86.1545 77.6636C88.9334 76.8681 91.1096 75.9398 92.5681 74.9527C94.0611 73.9423 94.585 73.0269 94.585 72.2982C94.585 71.5695 94.0611 70.6541 92.5681 69.6437C91.1096 68.6566 88.9334 67.7283 86.1545 66.9328C80.6102 65.3458 72.8927 64.3508 64.3269 64.3508C55.7611 64.3508 48.0436 65.3458 42.4993 66.9328C39.7204 67.7283 37.5442 68.6566 36.0857 69.6437C34.5927 70.6541 34.0688 71.5695 34.0688 72.2982C34.0688 73.0269 34.5927 73.9423 36.0857 74.9527C37.5442 75.9398 39.7204 76.8681 42.4993 77.6636C48.0436 79.2506 55.7611 80.2456 64.3269 80.2456Z" stroke="url(#paint7_linear_5_2640)" stroke-width="2"></path> <defs> <linearGradient id="paint0_linear_5_2640" x1="101.672" y1="-20.3621" x2="51.0689" y2="102.138" gradientUnits="userSpaceOnUse"> <stop stop-color="#705BA1"></stop> <stop offset="1" stop-color="#7298DD"></stop> </linearGradient> <linearGradient id="paint1_linear_5_2640" x1="81.1379" y1="0.483879" x2="-10.3621" y2="98.9839" gradientUnits="userSpaceOnUse"> <stop stop-color="#7298DD"></stop> <stop offset="1" stop-color="#705BA1"></stop> </linearGradient> <linearGradient id="paint2_linear_5_2640" x1="128" y1="97.9999" x2="105" y2="122" gradientUnits="userSpaceOnUse"> <stop stop-color="#705BA1"></stop> <stop offset="1" stop-color="#7298DD"></stop> </linearGradient> <linearGradient id="paint3_linear_5_2640" x1="128" y1="1.99994" x2="102" y2="26.9999" gradientUnits="userSpaceOnUse"> <stop stop-color="#705BA1"></stop> <stop offset="1" stop-color="#7298DD"></stop> </linearGradient> <linearGradient id="paint4_linear_5_2640" x1="31.4999" y1="-3.50005" x2="1.99994" y2="26.9999" gradientUnits="userSpaceOnUse"> <stop stop-color="#F6F8FD"></stop> <stop offset="0.0001" stop-color="#705BA1"></stop> </linearGradient> <linearGradient id="paint5_linear_5_2640" x1="29" y1="102" x2="2" y2="128" gradientUnits="userSpaceOnUse"> <stop stop-color="#705BA1"></stop> <stop offset="1" stop-color="#7298DD"></stop> </linearGradient> <linearGradient id="paint6_linear_5_2640" x1="34" y1="-1.88889" x2="2.125" y2="34" gradientUnits="userSpaceOnUse"> <stop stop-color="#7298DD"></stop> <stop offset="1" stop-color="#705BA1"></stop> </linearGradient> <linearGradient id="paint7_linear_5_2640" x1="29.5957" y1="81.2456" x2="40.7031" y2="46.7815" gradientUnits="userSpaceOnUse"> <stop stop-color="#7298DD"></stop> <stop offset="1" stop-color="#705BA1"></stop> </linearGradient> </defs> </svg> 