<?xml version="1.0" encoding="UTF-8"?> <svg xmlns="http://www.w3.org/2000/svg" width="108" height="112" viewBox="0 0 108 112" fill="none"> <rect x="-5.96046e-08" y="1" width="60.2222" height="60.2222" transform="matrix(0.866025 0.5 -0.866025 0.5 54.7521 50.2778)" stroke="url(#paint0_linear_1_13)" stroke-width="2"></rect> <rect x="-5.96046e-08" y="1" width="60.2222" height="60.2222" transform="matrix(0.866025 0.5 -0.866025 0.5 54.7521 37.8333)" stroke="url(#paint1_linear_1_13)" stroke-width="2"></rect> <rect x="-5.96046e-08" y="1" width="60.2222" height="60.2222" transform="matrix(0.866025 0.5 -0.866025 0.5 54.7521 25.3889)" stroke="url(#paint2_linear_1_13)" stroke-width="2"></rect> <rect x="-5.96046e-08" y="1" width="60.2222" height="60.2222" transform="matrix(0.866025 0.5 -0.866025 0.5 54.7521 12.9444)" stroke="url(#paint3_linear_1_13)" stroke-width="2"></rect> <rect x="-5.96046e-08" y="1" width="60.2222" height="60.2222" transform="matrix(0.866025 0.5 -0.866025 0.5 54.7521 0.5)" fill="url(#paint4_linear_1_13)" stroke="url(#paint5_linear_1_13)" stroke-width="2"></rect> <path d="M78.5 29C78.5 32.3035 75.8621 35.4233 71.3042 37.7469C66.7735 40.0567 60.4795 41.5 53.5 41.5C46.5206 41.5 40.2266 40.0567 35.6959 37.7469C31.138 35.4233 28.5 32.3035 28.5 29C28.5 25.6965 31.138 22.5767 35.6959 20.2531C40.2266 17.9433 46.5206 16.5 53.5 16.5C60.4795 16.5 66.7735 17.9433 71.3042 20.2531C75.8621 22.5767 78.5 25.6965 78.5 29Z" stroke="url(#paint6_linear_1_13)"></path> <ellipse cx="53.5" cy="28" rx="3.5" ry="2" fill="#7298DD"></ellipse> <defs> <linearGradient id="paint0_linear_1_13" x1="31.1111" y1="0" x2="31.1111" y2="62.2222" gradientUnits="userSpaceOnUse"> <stop stop-color="#705BA1"></stop> <stop offset="1" stop-color="#7298DD"></stop> </linearGradient> <linearGradient id="paint1_linear_1_13" x1="31.1111" y1="0" x2="31.1111" y2="62.2222" gradientUnits="userSpaceOnUse"> <stop stop-color="#705BA1"></stop> <stop offset="1" stop-color="#7298DD"></stop> </linearGradient> <linearGradient id="paint2_linear_1_13" x1="31.1111" y1="0" x2="31.1111" y2="62.2222" gradientUnits="userSpaceOnUse"> <stop stop-color="#705BA1"></stop> <stop offset="1" stop-color="#7298DD"></stop> </linearGradient> <linearGradient id="paint3_linear_1_13" x1="31.1111" y1="0" x2="31.1111" y2="62.2222" gradientUnits="userSpaceOnUse"> <stop stop-color="#705BA1"></stop> <stop offset="1" stop-color="#7298DD"></stop> </linearGradient> <linearGradient id="paint4_linear_1_13" x1="31.1111" y1="0" x2="31.1111" y2="62.2222" gradientUnits="userSpaceOnUse"> <stop stop-color="#705BA1"></stop> <stop offset="1" stop-color="#7298DD"></stop> </linearGradient> <linearGradient id="paint5_linear_1_13" x1="31.1111" y1="0" x2="31.1111" y2="62.2222" gradientUnits="userSpaceOnUse"> <stop stop-color="#705BA1"></stop> <stop offset="1" stop-color="#7298DD"></stop> </linearGradient> <linearGradient id="paint6_linear_1_13" x1="73.5909" y1="21.3529" x2="38.1447" y2="35.3687" gradientUnits="userSpaceOnUse"> <stop stop-color="#7298DD"></stop> <stop offset="1" stop-color="#705BA1"></stop> </linearGradient> </defs> </svg> 